<svg id="Ebene_1" data-name="Ebene 1" xmlns="http://www.w3.org/2000/svg" xmlns:xlink="http://www.w3.org/1999/xlink" viewBox="0 0 216.57 65.95"><defs><style>.cls-1,.cls-5{fill:none;}.cls-2{clip-path:url(#clip-path);}.cls-3{fill:#ee171d;}.cls-4{fill:#1d1d1b;}.cls-5{stroke:#1d1d1b;stroke-width:0.25px;}</style><clipPath id="clip-path" transform="translate(-1.14 -0.37)"><rect class="cls-1" x="1.14" y="0.37" width="216.57" height="65.95"/></clipPath></defs><title>paperwork-logo</title><g class="cls-2"><path class="cls-3" d="M152.86,11c.49-.56.35-1.1-.4-1.6h-.09a1.34,1.34,0,0,0-1,.85q.38,1.39,1.5.75m-6.72.19h.16l.36.1a6.3,6.3,0,0,0,0-1.85,2.09,2.09,0,0,1-1-1.69h-.41c-.95,0-1.4.24-1.34.77a3.68,3.68,0,0,0,2.2,2.67m1-10.57a1,1,0,0,1,0,.41V2.22l.2.31a1,1,0,0,1,.41.41,2.4,2.4,0,0,0,.06.56l.15.11h.15l.21-.06h.2a.37.37,0,0,1,.16,0h.15a5.51,5.51,0,0,1,.87-.1,1.3,1.3,0,0,0,0-.87,2.82,2.82,0,0,0-2.56-2ZM145,1a1.07,1.07,0,0,1-.26.26,3.2,3.2,0,0,1-.31.56,2.16,2.16,0,0,1-.31.46,3.45,3.45,0,0,0,2.11,3.9l.05.1.15.05.06.11.15.05a3.36,3.36,0,0,1,.51.41l.36.1a2.56,2.56,0,0,1,.66.92,1.38,1.38,0,0,1-.76,1.23l0,.77a4.36,4.36,0,0,0,.05,1.29,2.57,2.57,0,0,0,1.18-.37,3.42,3.42,0,0,0,1.38-3.12,1,1,0,0,1-.15-.46L149.83,7l-.46-.92-.1,0a2.82,2.82,0,0,0-.61-.57l-.21-.2a2.55,2.55,0,0,1-.72-.51A4.36,4.36,0,0,1,146,3.65,2.56,2.56,0,0,1,146.1,3a2.91,2.91,0,0,1,.3-.41,1.53,1.53,0,0,1,.11-.41l-.06-.15.06-.1a1.75,1.75,0,0,1,0-.57,3.44,3.44,0,0,1,0-.82,1.55,1.55,0,0,0-.62-.15.25.25,0,0,1-.16,0A1.69,1.69,0,0,1,145,1m-3-.46h-1.3a3.48,3.48,0,0,1-.94,0h-1.74a5.09,5.09,0,0,0-1,.05l0,.1,0,.25v.55a2.45,2.45,0,0,0,.1.85l.15,0h.3a2.18,2.18,0,0,1,.65.06,1.64,1.64,0,0,1,.54-.1l.1.1.05.64-.05.35V6a2.6,2.6,0,0,1,0,.79V7a1.42,1.42,0,0,1,0,.65A3.86,3.86,0,0,1,139,8.89a.09.09,0,0,1,0,.1v.85a1.53,1.53,0,0,1,0,.74l.2.6a1.46,1.46,0,0,0,.55-.1A1.94,1.94,0,0,0,141,11v-1a4,4,0,0,1,0-.8V7.74a3.79,3.79,0,0,0-.05-.79l.05-.2V6.46l-.05-.2.05-.3-.05-.2V2.32l.15.06.2-.06.1.06h1.29a3.57,3.57,0,0,0-.1-1.85l-.24-.05Zm-6.56,5.6-.05-.65,0-.64V4a1,1,0,0,1-.05-.4,4.16,4.16,0,0,0,0-.5V2.3l-.06-.15a3.86,3.86,0,0,0,0-1.5c-.06,0-.09-.06-.1-.1H135a5.19,5.19,0,0,1-1.14,0l-.3.05a2.08,2.08,0,0,0,0,.5,2.85,2.85,0,0,0,0,.85v.39a1.41,1.41,0,0,1,.05.35l.15.15,0,.2.15.15,0,.25.05.2a.25.25,0,0,1,.1.15l.1.15a3.45,3.45,0,0,1,.2.5l.1.1.05.14.1.1.2.51.19.44v.45l.4.15Zm-.06,4.18,0-.15,0-.1V8.82a1.89,1.89,0,0,1-.1-.35l-.2-.3a.87.87,0,0,1-.14-.4,1.33,1.33,0,0,1-.3-.59,5.55,5.55,0,0,1-.45-.85L134.1,6l-.1-.3-.15-.3-.1-.2-.15-.3-.15-.3-.09-.25-.1-.3a1.05,1.05,0,0,1-.15-.3l-.1-.14V3.48a1.64,1.64,0,0,1-.3-.54l-.1-.25a.28.28,0,0,1,0-.15l-.1-.15a3.45,3.45,0,0,1-.2-.5.3.3,0,0,1-.05-.15.1.1,0,0,1-.05-.1,4.69,4.69,0,0,1-.49-1l-.15,0h-.2L131,.69a1.71,1.71,0,0,0-.9,0V1a1.69,1.69,0,0,1,0,.55l.1.49a1.56,1.56,0,0,1,.34.7l0,.1.1.1a4.4,4.4,0,0,0,.3.5v.15a1.84,1.84,0,0,1,.4.75l.14.25.15.24.15.26v.14a2.08,2.08,0,0,1,.39.75.11.11,0,0,1,.06.1,1.76,1.76,0,0,1,.1.3,1.3,1.3,0,0,1,.34.64l.15.16.1.2v.15a1.81,1.81,0,0,1,.34.7l.1.14.05.15a2.25,2.25,0,0,1,.34.75l.1.1.05.2a3.68,3.68,0,0,1,.5,1.15,1.23,1.23,0,0,0,.89.25c0-.06.07-.09.1-.1Zm-3.24.69.05-.4,0-.1a4,4,0,0,1,0-2,.47.47,0,0,1-.1-.25l-.1-.2,0-.25-.2-.25v-.2l-.15-.15,0-.1-.24-.6-.2-.34-.05-.2a3.23,3.23,0,0,1-.59-1.35,1.16,1.16,0,0,1-.25-.4l-.2,0v.15a3.23,3.23,0,0,0-.06.95,2.46,2.46,0,0,0,.06.69l-.06.2a.51.51,0,0,1,0,.3,1.83,1.83,0,0,1,.05.6,2,2,0,0,1,0,.7,1.38,1.38,0,0,1,0,.64,1.51,1.51,0,0,1,0,.55v1.94a1.38,1.38,0,0,0,1,.25ZM127.71.48a.74.74,0,0,1-.5.06l-.2.14v.5l0,.3,0,.15,0,.25a9.9,9.9,0,0,0,0,1.55V6l0,.1a2.13,2.13,0,0,0,0,.64l0,.3,0,.25,0,.3,0,.25,0,.15V10.8l0,.3a1.84,1.84,0,0,1,.8.1,4.11,4.11,0,0,1,1-.15V1.88l-.06-.1a1.12,1.12,0,0,1,.06-.4l-.1-.8a1.9,1.9,0,0,0-1.05,0ZM122.91,2q1.34.65.66,2.79a.89.89,0,0,0-.66.51v.15a4,4,0,0,1,0,1l.1.3a.78.78,0,0,1,.66.31v.15a1.84,1.84,0,0,1,0,.65v2a4.92,4.92,0,0,0,0,1.26h.26l.14-.05.11.05h.15l.2-.05a3.42,3.42,0,0,0,.91,0l0-.15V7.11a1.76,1.76,0,0,1-.1-.41l-.15-.35-.1,0a1.56,1.56,0,0,0-.61-.41v-.2a2.53,2.53,0,0,0,.91-2.89A2.1,2.1,0,0,0,123.41.48q-.61.06-.6.6a1.21,1.21,0,0,1,.1,1M120,.63V.78a6.53,6.53,0,0,1,0,1.11l0,.66,0,.2v.56a5.66,5.66,0,0,1,0,1.11v.36a9.42,9.42,0,0,0,.05,1.27V6.3l-.05.15.05.15a3.63,3.63,0,0,0,0,.81l-.05.25a4.19,4.19,0,0,1,0,.71v.25l.05.16v2.37h1.67l.15-.35v-1l0-1.11,0-.36a4.93,4.93,0,0,0,0-1.11V6.85a9.29,9.29,0,0,1,0-1.57l0-.15v-.4a3.63,3.63,0,0,0,0-.81V3.36l0-.2V2.8l0-.25,0-.15V1.49l0-.1a2.61,2.61,0,0,1,0-.81,2.3,2.3,0,0,0-.51-.15,3.21,3.21,0,0,1-.91,0,.93.93,0,0,1-.45.15m-6.4,4.54a6.07,6.07,0,0,0,.05,1l-.05.56.05.3V9.21a17.82,17.82,0,0,0,0,1.92,6.74,6.74,0,0,0,1.77-.1l0-.36V7.19l0-.35V6.18l0-.1V3.5l0-.14,0-.11a5.44,5.44,0,0,0-.1-1.16,3.49,3.49,0,0,0,0-1.51l-.16-.1h-1.46a3.68,3.68,0,0,0-.1,1.36ZM116.46.63a.38.38,0,0,1,0,.15l.05.71a2.15,2.15,0,0,0-.05.65.78.78,0,0,1,.66.41V3.1a6.09,6.09,0,0,1,0,.91,1,1,0,0,1-.7.8v.51a5.29,5.29,0,0,0,.05,1.11c1.72,0,2.53-.94,2.42-2.72.11-1.93-.65-3-2.27-3.28ZM109.67,2c.89.43,1.11,1.36.65,2.79a.9.9,0,0,0-.65.51v.15a4.56,4.56,0,0,1,0,1l.1.3a.78.78,0,0,1,.66.31v.15a2.11,2.11,0,0,1,0,.65v2a4.5,4.5,0,0,0,0,1.26h.25l.15-.05.11.05h.15l.2-.05a3.43,3.43,0,0,0,.91,0l.05-.15V7.11a1.37,1.37,0,0,1-.1-.41l-.15-.35-.1,0a1.64,1.64,0,0,0-.61-.41v-.2a2.53,2.53,0,0,0,.91-2.89A2.1,2.1,0,0,0,110.17.48q-.61.06-.6.6a1.21,1.21,0,0,1,.1,1M106.78.63V.78a6.7,6.7,0,0,1,.06,1.11l0,.66,0,.2v.56a4.87,4.87,0,0,1,0,1.11v.36a9.22,9.22,0,0,0,.06,1.27V6.3l-.06.15.06.15a3.63,3.63,0,0,0,0,.81l-.06.25a2.8,2.8,0,0,1,0,.71v.25l.06.16v2.37h1.67l.15-.35v-1l-.05-1.11-.06-.36a5,5,0,0,0,.06-1.11V6.85a8.34,8.34,0,0,1,.05-1.57l-.05-.15v-.4a5.43,5.43,0,0,0,0-.81V3.36l-.06-.2V2.8l.06-.25-.06-.15V1.49l.06-.1a3,3,0,0,1-.06-.81,2.24,2.24,0,0,0-.5-.15,3.22,3.22,0,0,1-.91,0,.93.93,0,0,1-.46.15m-6.53,1.15v.71c0,.39-.06.69-.06.91v6.85a3.93,3.93,0,0,0,.06.81l.29,0,.21-.1h.2l.56.1h2.16l.16.05h.65a2.93,2.93,0,0,1,.81.05.19.19,0,0,1,.1-.1l0-.15v-.25l0-.15V9.4l.05-.16a1.09,1.09,0,0,0-.45-.19l-.26,0h-1.56l-.15,0H103l-1,0,.1-.4V8.54l0-.36V6.37l.15.1h.46a2.08,2.08,0,0,0,.5,0l.15,0a1.32,1.32,0,0,1,.61,0l.2-.2,0-.1V4.76l-.15-.16h-.66a3.86,3.86,0,0,0-1.21.1L102,4.6V4.4l.1-.15v-.2a5.47,5.47,0,0,0,0-.61v-.3a4.51,4.51,0,0,1,0-1h.2a1.36,1.36,0,0,1,.51.11,3,3,0,0,0,.7-.06,3.05,3.05,0,0,0,.61,0,4.06,4.06,0,0,0,1.31,0l.15-.25,0-.2,0-.35a.76.76,0,0,1,0-.66.53.53,0,0,1-.1-.25h-.3a3.2,3.2,0,0,1-.86,0l-.25,0h-.2a2.8,2.8,0,0,0-.71,0h-.15l-.35,0-.11,0a1.87,1.87,0,0,0-.6,0h-.15l-.16,0h-1.2a1.67,1.67,0,0,1-.31.3,4.5,4.5,0,0,1,.06,1.11M94.58.61h-.4l-.34,0-.1.25,0,5.51,0,.35a3.91,3.91,0,0,1,0,.84v3.33l.14.1.2.05h.2l.2.05h3a4.61,4.61,0,0,1,1.15,0,2.8,2.8,0,0,0,.44-.15v-.15a6.55,6.55,0,0,0,0-1.39l-.2-.1a2.59,2.59,0,0,1-1.24,0,1.16,1.16,0,0,1-.7-.05,1.49,1.49,0,0,1-1.09-.1V8l0-.35,0-.3v-1a3,3,0,0,1,0-.84l-.1-.35V4.73l0-.3v-.3a2.92,2.92,0,0,1,0-.7l0-.14a1.39,1.39,0,0,1,0-.5l0-.2a5.62,5.62,0,0,0-.1-2,3.18,3.18,0,0,0-.94-.06s-.07.07-.1.06m-6.52,0h-.4l-.35,0-.1.25.05,5.51-.05.35a2.94,2.94,0,0,1,0,.84c0,.35,0,.63,0,.85v2.48l.15.1.2.05h.2l.2.05h3a4.5,4.5,0,0,1,1.14,0,2.62,2.62,0,0,0,.45-.15v-.15a6.55,6.55,0,0,0,0-1.39l-.2-.1a2.59,2.59,0,0,1-1.24,0,1.16,1.16,0,0,1-.7-.05,1.49,1.49,0,0,1-1.09-.1V8l0-.35,0-.3v-1a3,3,0,0,1,0-.84l-.1-.35V4.73l0-.3v-.3a2.92,2.92,0,0,1,0-.7l0-.14a1.39,1.39,0,0,1,0-.5l0-.2a5.62,5.62,0,0,0-.1-2,3.18,3.18,0,0,0-.94-.06s-.07.07-.1.06M80.51,1.78v.71c0,.39-.06.69-.06.91v6.85a3.93,3.93,0,0,0,.06.81l.29,0L81,11h.2l.56.1h2.16l.16.05h.65a2.93,2.93,0,0,1,.81.05.19.19,0,0,1,.1-.1l0-.15v-.25l0-.15V9.4l0-.16a1.09,1.09,0,0,0-.45-.19l-.26,0H83.53l-.15,0h-.15l-1,0,.1-.4V8.54l.05-.36V6.37l.15.1H83a2.08,2.08,0,0,0,.5,0l.15,0a1.32,1.32,0,0,1,.61,0l.2-.2,0-.1V4.76l-.15-.16h-.66a3.86,3.86,0,0,0-1.21.1l-.25-.1V4.4l.1-.15v-.2a5.47,5.47,0,0,0,.05-.61v-.3a4.51,4.51,0,0,1,0-1h.2a1.27,1.27,0,0,1,.5.11,3,3,0,0,0,.71-.06,3.05,3.05,0,0,0,.61,0,4.06,4.06,0,0,0,1.31,0l.15-.25-.05-.2.05-.35a.76.76,0,0,1,0-.66.53.53,0,0,1-.1-.25h-.3a3.2,3.2,0,0,1-.86,0l-.25,0h-.2a2.8,2.8,0,0,0-.71,0h-.15L83,.42l-.11,0a1.87,1.87,0,0,0-.6,0h-.15L82,.37h-1.2a1.67,1.67,0,0,1-.31.3,4.5,4.5,0,0,1,.06,1.11M77.27,1.7a1.34,1.34,0,0,1,0,.51,6.24,6.24,0,0,1,0,.81v.56l0,.3,0,3.35a6.75,6.75,0,0,1,.16,1.12l0,.25-.11.05a1.49,1.49,0,0,1-.45.86V10s.06.07,0,.11v.14c0,.32,0,.59,0,.82a.27.27,0,0,1,.15.15A3.61,3.61,0,0,0,79,9.67a.85.85,0,0,1,.15-.36,4.18,4.18,0,0,1,.1-.71l-.05-.35V7.33l0-.86V3.58l0-.35,0-.16V2.92l0-.1,0-.16a1.87,1.87,0,0,1,0-.65A4.47,4.47,0,0,0,79,.54l-.1-.06H77.46a1.16,1.16,0,0,0-.19.56ZM73.81.64q0,.39,0,.66V3.73A9,9,0,0,0,73.87,5a3,3,0,0,0,0,1v.16l0,.15V7.74a.38.38,0,0,1,0,.15V8a6.25,6.25,0,0,1,0,1,1,1,0,0,1,.16.51,2.76,2.76,0,0,0,2,1.62.31.31,0,0,1,.15-.1,4.55,4.55,0,0,1,0-.91,1.13,1.13,0,0,0-.41-1l0-.2V8.5l-.05-.15a1.94,1.94,0,0,0,0-1l.05-.21a.79.79,0,0,1-.05-.4V4.39l0-.35a3.08,3.08,0,0,1,0-.71l0-.31a3.61,3.61,0,0,0,0-.66V2.21a1.47,1.47,0,0,1,0-.41.1.1,0,0,1,0-.1,4,4,0,0,0,0-1.22H73.81ZM65.87,5.3l-.11.25,0,.25v.35a3.29,3.29,0,0,0-.07.95l0,.7,0,.25,0,.46V8.9l0,.16v.55a2,2,0,0,1,0,.55,2.21,2.21,0,0,1,0,.8.69.69,0,0,1,.09.25l.15.06.1,0,.16,0,.14,0,.56,0a3.22,3.22,0,0,1,.5,0l0-.15.06-.19V10.7l-.09-.35,0-1a2.61,2.61,0,0,0-.23-.61l0-.25-.09-.2,0-.25a1.21,1.21,0,0,1-.14-.61l-.1-.1a2.19,2.19,0,0,0-.22-.81V6.37a4.13,4.13,0,0,1-.33-.86l-.35-.21Zm0-4.66,0,1.15.14.26.14.35,0,.35.09.11V3a3.18,3.18,0,0,1,.33,1,.69.69,0,0,1,.09.25l.09.25a2.39,2.39,0,0,1,.23.81l.15.2v.15a2.08,2.08,0,0,1,.19.61,2.77,2.77,0,0,1,.33,1.06l.15.15.17.81.1.21,0,.19.1.16,0,.25,0,.3a.18.18,0,0,1,.05.15l.1.11v.19l.1.16.09.35a2.18,2.18,0,0,0,.14.71,2.82,2.82,0,0,0,.5-.09l.11-.35a.6.6,0,0,1,0-.3l0-.2.11-.25v-.2l.11-.19v-.3l.11-.06L70,8.21l0-.35a4.94,4.94,0,0,1,.08-1.1l0-.21,0-.14a1.3,1.3,0,0,1,0-.55V4.8l0-.15,0-.15,0-.1a2.44,2.44,0,0,0,.07-.75,1,1,0,0,0-.4-.11l-.06.2-.1.1-.06.29-.11.4-.27.75-.25-.11,0-.3a1.15,1.15,0,0,1-.14-.55,2.24,2.24,0,0,1-.28-.81l0-.3A.58.58,0,0,1,68.24,3l-.1-.2L68,1.9l-.09-.11v-.2A4.52,4.52,0,0,1,67.54.53H67a1.49,1.49,0,0,0-.4,0A1.33,1.33,0,0,0,66.09.5Zm4.91,0V.77a5,5,0,0,0,0,.65l-.06,2.4a2.45,2.45,0,0,1,0,.7l0,2.46a3.54,3.54,0,0,0,0,.6,1.57,1.57,0,0,0,0,.75,2.35,2.35,0,0,0,0,1.05l0,.1A5.51,5.51,0,0,0,70.89,11a4,4,0,0,0,1.56-.06v-.75a.22.22,0,0,1,0-.16v-.3a.19.19,0,0,1,0-.15V9.43l0-.41a3,3,0,0,0,.07-.6l-.1-.2.12-.3,0-.3a1.45,1.45,0,0,0,0-.4,1.14,1.14,0,0,0,0-.55l.06-.2-.05-.1,0-.55a2.37,2.37,0,0,1,0-.51V4.46l0-.3.06-.2a.69.69,0,0,1,0-.25.34.34,0,0,1,0-.2,1.26,1.26,0,0,1,0-.55.59.59,0,0,1,0-.25l0-.1V2.46l0-.6v-.3a5.42,5.42,0,0,0,0-1L72.31.5A3.17,3.17,0,0,1,71,.42Z" transform="translate(-1.14 -0.37)"/><path class="cls-4" d="M161.45,32.81h1.28V28.24l4.55,4.57H169l-5-5.06,4.7-4.42H167l-4.25,4v-4h-1.28Zm-10.82-8.43a2,2,0,0,1,1.4.43,1.59,1.59,0,0,1,.47,1.25,1.64,1.64,0,0,1-.47,1.26,2.06,2.06,0,0,1-1.4.43H149V24.38Zm2.81,3.16a2.54,2.54,0,0,0,.41-1.48,2.52,2.52,0,0,0-.8-2,3.68,3.68,0,0,0-2.42-.68h-2.9v9.48H149v-4h1.39a2.09,2.09,0,0,1,1.2.31,3.42,3.42,0,0,1,.92,1.27l1.21,2.43h1.38l-1.31-2.59A5.76,5.76,0,0,0,153,29a2,2,0,0,0-.8-.6,2.11,2.11,0,0,0,1.21-.82m-20-3.05a5.19,5.19,0,0,0-1.19,3.59,5.14,5.14,0,0,0,1.19,3.58,4.08,4.08,0,0,0,3.2,1.33,4,4,0,0,0,3.18-1.34,5.14,5.14,0,0,0,1.2-3.57,5.19,5.19,0,0,0-1.2-3.59,4,4,0,0,0-3.18-1.33,4.08,4.08,0,0,0-3.2,1.33m5.41.75a4.5,4.5,0,0,1,.82,2.84,4.51,4.51,0,0,1-.82,2.83,2.66,2.66,0,0,1-2.21,1,2.7,2.7,0,0,1-2.22-1,4.45,4.45,0,0,1-.82-2.83,4.44,4.44,0,0,1,.82-2.84,2.7,2.7,0,0,1,2.22-1,2.66,2.66,0,0,1,2.21,1m-22.06,7.57h1.61l2-8.23,2,8.23h1.61l2.38-9.48h-1.3l-2,8-2-8h-1.44l-2,8-2-8h-1.3ZM105,24.38a2,2,0,0,1,1.4.43,1.59,1.59,0,0,1,.47,1.25,1.64,1.64,0,0,1-.47,1.26,2.07,2.07,0,0,1-1.4.43h-1.62V24.38Zm2.8,3.16a2.47,2.47,0,0,0,.42-1.48,2.55,2.55,0,0,0-.8-2,3.68,3.68,0,0,0-2.42-.68h-2.9v9.48h1.28v-4h1.4a2.09,2.09,0,0,1,1.2.31,3.31,3.31,0,0,1,.91,1.27l1.22,2.43h1.37l-1.3-2.59A5.76,5.76,0,0,0,107.4,29a2,2,0,0,0-.8-.6,2.09,2.09,0,0,0,1.2-.82M89.21,32.81h6.1V31.73H90.49V28.29H95V27.21H90.49v-2.8H95.2V23.33h-6Zm-12.52,0H78V29h1.61A3.54,3.54,0,0,0,82,28.28a2.65,2.65,0,0,0,.82-2.12A2.64,2.64,0,0,0,82,24.05a3.54,3.54,0,0,0-2.41-.72H76.69Zm2.89-8.43a2,2,0,0,1,1.39.47,1.73,1.73,0,0,1,.48,1.31A1.75,1.75,0,0,1,81,27.48a1.94,1.94,0,0,1-1.39.46H78V24.38ZM61.94,32.81h1.35l.87-2.43h4.27l.86,2.43h1.33L67,23.33H65.56ZM68,29.31H64.54l1.74-4.72Zm-16.6,3.5h1.28V29h1.61a3.54,3.54,0,0,0,2.41-.72,2.68,2.68,0,0,0,.82-2.12,2.68,2.68,0,0,0-.82-2.11,3.54,3.54,0,0,0-2.41-.72H51.43Zm2.89-8.43a2,2,0,0,1,1.39.47,1.73,1.73,0,0,1,.48,1.31,1.75,1.75,0,0,1-.48,1.32,1.94,1.94,0,0,1-1.39.46H52.71V24.38Z" transform="translate(-1.14 -0.37)"/><path class="cls-4" d="M179.52,61.15a1.19,1.19,0,0,0-.71-.21,1.47,1.47,0,0,0-.72.17,1.34,1.34,0,0,0-.51.52V61H177v3.83h.63V62.7a1.32,1.32,0,0,1,.28-.89,1,1,0,0,1,.77-.32.68.68,0,0,1,.6.26,1.4,1.4,0,0,1,.19.82v2.29h.64V62.7a1.3,1.3,0,0,1,.28-.89,1,1,0,0,1,.77-.32.71.71,0,0,1,.6.26,1.4,1.4,0,0,1,.19.82v2.29h.63V62.55a1.87,1.87,0,0,0-.32-1.19,1.1,1.1,0,0,0-.92-.42,1.51,1.51,0,0,0-.78.2,1.75,1.75,0,0,0-.56.63,1.24,1.24,0,0,0-.43-.62m-8.32.32a2.19,2.19,0,0,0-.47,1.48,2.14,2.14,0,0,0,.47,1.47,1.81,1.81,0,0,0,2.58,0,2.14,2.14,0,0,0,.47-1.47,2.19,2.19,0,0,0-.47-1.48,1.83,1.83,0,0,0-2.58,0m2.09.4a1.84,1.84,0,0,1,.29,1.08,1.8,1.8,0,0,1-.29,1.08,1,1,0,0,1-.8.4,1,1,0,0,1-.8-.4,2.16,2.16,0,0,1,0-2.16.93.93,0,0,1,.8-.4,1,1,0,0,1,.8.4M167.7,61a2.76,2.76,0,0,0-.57-.06,1.85,1.85,0,0,0-1.41.54A2,2,0,0,0,165.2,63a2.09,2.09,0,0,0,.51,1.47,1.81,1.81,0,0,0,1.38.54,2.91,2.91,0,0,0,.6-.06,2,2,0,0,0,.54-.19v-.58a2.2,2.2,0,0,1-.53.22,2,2,0,0,1-.54.08,1.18,1.18,0,0,1-.95-.39,1.92,1.92,0,0,1,0-2.18,1.18,1.18,0,0,1,.95-.39,2,2,0,0,1,.54.08,2.2,2.2,0,0,1,.53.22v-.59a2.55,2.55,0,0,0-.53-.18m-6,3.86h.72V64h-.72Zm-5.84,0h.63V63l1.94,1.87h.82l-2.11-2,2-1.79h-.81l-1.87,1.65V59.54h-.63ZM153.5,61l-.18,0h-.14a1.65,1.65,0,0,0-.77.17,1.19,1.19,0,0,0-.52.52V61h-.63v3.83h.63v-2a1.46,1.46,0,0,1,.29-1,1,1,0,0,1,.81-.35,1.2,1.2,0,0,1,.28,0,.92.92,0,0,1,.23.09Zm-8,.5a2.19,2.19,0,0,0-.46,1.48,2.14,2.14,0,0,0,.46,1.47,1.81,1.81,0,0,0,2.58,0,2.14,2.14,0,0,0,.47-1.47,2.19,2.19,0,0,0-.47-1.48,1.83,1.83,0,0,0-2.58,0m2.09.4a1.84,1.84,0,0,1,.29,1.08A1.8,1.8,0,0,1,147.6,64a1,1,0,0,1-1.6,0,2.16,2.16,0,0,1,0-2.16.93.93,0,0,1,.8-.4,1,1,0,0,1,.8.4m-9,3h.74l.83-3.14.82,3.14h.74l1-3.83h-.63l-.79,3-.78-3h-.74L139,64l-.78-3h-.63Zm-3-3.89-.17,0h-.15a1.65,1.65,0,0,0-.77.17,1.3,1.3,0,0,0-.52.52V61h-.63v3.83H134v-2a1.52,1.52,0,0,1,.29-1,1,1,0,0,1,.82-.35,1.12,1.12,0,0,1,.27,0,.79.79,0,0,1,.23.09Zm-7.8,1.64a1.26,1.26,0,0,1,.37-.84,1.17,1.17,0,0,1,.84-.3,1,1,0,0,1,.75.31,1.21,1.21,0,0,1,.28.82Zm2.42-1.17a1.56,1.56,0,0,0-1.22-.5,1.77,1.77,0,0,0-1.37.55,2.12,2.12,0,0,0-.5,1.49,2,2,0,0,0,.53,1.45,2,2,0,0,0,1.45.53,3.38,3.38,0,0,0,.72-.08,4.33,4.33,0,0,0,.7-.21v-.6a3.21,3.21,0,0,1-.68.27,2.74,2.74,0,0,1-.7.09,1.39,1.39,0,0,1-1-.34,1.5,1.5,0,0,1-.39-1h2.89v-.31a1.93,1.93,0,0,0-.45-1.35M123.71,64a1,1,0,0,1-1.57,0,1.85,1.85,0,0,1-.29-1.09,1.83,1.83,0,0,1,.29-1.09,1,1,0,0,1,1.57,0A1.83,1.83,0,0,1,124,63a1.85,1.85,0,0,1-.28,1.09m-1.36.75a1.54,1.54,0,0,0,.73.17,1.4,1.4,0,0,0,1.13-.55,2.64,2.64,0,0,0,0-2.92,1.37,1.37,0,0,0-1.13-.55,1.43,1.43,0,0,0-.73.17,1.41,1.41,0,0,0-.5.5V61h-.63v5.29h.63v-2a1.41,1.41,0,0,0,.5.5m-4.49-3.42a1.62,1.62,0,0,0-1.24-.43A2.7,2.7,0,0,0,116,61a3.62,3.62,0,0,0-.67.2v.58a2.22,2.22,0,0,1,.6-.24,2.65,2.65,0,0,1,.63-.08,1.22,1.22,0,0,1,.81.24.82.82,0,0,1,.28.67v.06h-.88a2.12,2.12,0,0,0-1.29.33,1.15,1.15,0,0,0-.43,1,1.17,1.17,0,0,0,.34.88,1.33,1.33,0,0,0,.94.33,1.67,1.67,0,0,0,.78-.17,1.32,1.32,0,0,0,.54-.51v.58h.63V62.68a1.85,1.85,0,0,0-.41-1.31m-.22,1.57v.14a1.46,1.46,0,0,1-.31,1,1.07,1.07,0,0,1-.84.37.85.85,0,0,1-.6-.19.67.67,0,0,1-.22-.54.62.62,0,0,1,.29-.59,2.23,2.23,0,0,1,1.06-.17Zm-6,1.1a.93.93,0,0,1-.79.39.91.91,0,0,1-.78-.39,1.85,1.85,0,0,1-.29-1.09,1.83,1.83,0,0,1,.29-1.09.91.91,0,0,1,.78-.39.93.93,0,0,1,.79.39A1.83,1.83,0,0,1,111.9,63a1.85,1.85,0,0,1-.28,1.09m-1.36.75A1.47,1.47,0,0,0,111,65a1.4,1.4,0,0,0,1.14-.55,2.69,2.69,0,0,0,0-2.92,1.51,1.51,0,0,0-1.86-.38,1.33,1.33,0,0,0-.5.5V61h-.63v5.29h.63v-2a1.33,1.33,0,0,0,.5.5m-5.63-1.57h1.84v-.56h-1.84ZM101.49,61a4.4,4.4,0,0,0-.65-.05,1.79,1.79,0,0,0-1.09.29,1,1,0,0,0-.38.84.92.92,0,0,0,.26.7,1.65,1.65,0,0,0,.84.37l.22.06a2.12,2.12,0,0,1,.76.26.52.52,0,0,1-.07.82,1.29,1.29,0,0,1-.68.15,2.57,2.57,0,0,1-.67-.09,3.28,3.28,0,0,1-.69-.27v.65a5.57,5.57,0,0,0,.7.18,3.63,3.63,0,0,0,.64.06,1.88,1.88,0,0,0,1.16-.31,1,1,0,0,0,.43-.85,1,1,0,0,0-.29-.73,2,2,0,0,0-1-.4l-.21-.05a1.75,1.75,0,0,1-.68-.24A.39.39,0,0,1,100,62a.47.47,0,0,1,.23-.43,1.33,1.33,0,0,1,.7-.14,2.91,2.91,0,0,1,.6.06,2.83,2.83,0,0,1,.55.21v-.6a3.92,3.92,0,0,0-.57-.15m-6.3-1.05V61h-.47v.49h.47V63.6a1.4,1.4,0,0,0,.27,1,1.46,1.46,0,0,0,1,.27h.64v-.53h-.64A.71.71,0,0,1,96,64.2a.91.91,0,0,1-.13-.6V61.52h1.29V61H95.82V59.94Zm-3.27,1.41a1.23,1.23,0,0,0-1-.41,1.38,1.38,0,0,0-1.23.69V61h-.64v3.83h.64V62.7a1.31,1.31,0,0,1,.29-.89,1,1,0,0,1,.8-.32.76.76,0,0,1,.64.27,1.31,1.31,0,0,1,.21.81v2.29h.63V62.55a1.81,1.81,0,0,0-.34-1.2m-6.47-1h.63v-.8h-.63Zm0,4.52h.63V61h-.63ZM83.11,61l-.17,0h-.15a1.65,1.65,0,0,0-.77.17,1.3,1.3,0,0,0-.52.52V61h-.63v3.83h.63v-2a1.52,1.52,0,0,1,.29-1,1,1,0,0,1,.82-.35,1.12,1.12,0,0,1,.27,0,.79.79,0,0,1,.23.09ZM77.24,64a.94.94,0,0,1-.79.39.91.91,0,0,1-.78-.39A1.85,1.85,0,0,1,75.38,63a1.83,1.83,0,0,1,.29-1.09.91.91,0,0,1,.78-.39.94.94,0,0,1,.79.39A1.83,1.83,0,0,1,77.52,63,1.85,1.85,0,0,1,77.24,64m-1.36.75a1.47,1.47,0,0,0,.72.17,1.4,1.4,0,0,0,1.14-.55,2.69,2.69,0,0,0,0-2.92,1.51,1.51,0,0,0-1.86-.38,1.33,1.33,0,0,0-.5.5V61h-.63v5.29h.63v-2a1.33,1.33,0,0,0,.5.5M72.43,61l-.17,0h-.15a1.65,1.65,0,0,0-.77.17,1.3,1.3,0,0,0-.52.52V61h-.63v3.83h.63v-2a1.52,1.52,0,0,1,.29-1,1,1,0,0,1,.82-.35,1.12,1.12,0,0,1,.27,0,.79.79,0,0,1,.23.09Zm-7.8,1.64a1.22,1.22,0,0,1,.37-.84,1.17,1.17,0,0,1,.84-.3,1,1,0,0,1,.74.31,1.17,1.17,0,0,1,.29.82Zm2.42-1.17a1.56,1.56,0,0,0-1.22-.5,1.77,1.77,0,0,0-1.37.55A2.12,2.12,0,0,0,64,63a2,2,0,0,0,.54,1.45,2,2,0,0,0,1.45.53,3.53,3.53,0,0,0,.72-.08,4.33,4.33,0,0,0,.7-.21v-.6a3.21,3.21,0,0,1-.68.27,2.74,2.74,0,0,1-.7.09,1.39,1.39,0,0,1-1-.34,1.5,1.5,0,0,1-.39-1H67.5v-.31a1.93,1.93,0,0,0-.45-1.35M60.6,64.86h.63V59.54H60.6Zm-3.62,0h.63V59.54H57ZM51.4,62.61a1.26,1.26,0,0,1,.36-.84,1.17,1.17,0,0,1,.84-.3,1,1,0,0,1,.75.31,1.22,1.22,0,0,1,.29.82Zm2.42-1.17a1.58,1.58,0,0,0-1.23-.5,1.74,1.74,0,0,0-1.36.55A2.12,2.12,0,0,0,50.72,63a1.83,1.83,0,0,0,2,2,3.55,3.55,0,0,0,.73-.08,4.54,4.54,0,0,0,.69-.21v-.6a3,3,0,0,1-.68.27,2.69,2.69,0,0,1-.7.09,1.35,1.35,0,0,1-1-.34,1.45,1.45,0,0,1-.4-1h2.9v-.31a1.93,1.93,0,0,0-.45-1.35m-8.67,3.11a1.24,1.24,0,0,0,1,.41,1.49,1.49,0,0,0,.71-.17,1.63,1.63,0,0,0,.53-.52v.59H48V61h-.63V63.2a1.26,1.26,0,0,1-.3.89,1,1,0,0,1-.8.32.76.76,0,0,1-.64-.27,1.31,1.31,0,0,1-.21-.81V61h-.63v2.32a1.81,1.81,0,0,0,.34,1.2m-6.23-3.4a1.16,1.16,0,0,0-.7-.21,1.47,1.47,0,0,0-.72.17,1.44,1.44,0,0,0-.52.52V61h-.63v3.83H37V62.7a1.32,1.32,0,0,1,.29-.89,1,1,0,0,1,.76-.32.69.69,0,0,1,.61.26,1.4,1.4,0,0,1,.19.82v2.29h.63V62.7a1.31,1.31,0,0,1,.29-.89,1,1,0,0,1,.77-.32.69.69,0,0,1,.59.26,1.39,1.39,0,0,1,.2.82v2.29h.63V62.55a1.94,1.94,0,0,0-.32-1.19,1.11,1.11,0,0,0-.93-.42,1.5,1.5,0,0,0-.77.2,1.58,1.58,0,0,0-.56.63,1.26,1.26,0,0,0-.44-.62" transform="translate(-1.14 -0.37)"/><line class="cls-5" y1="45.6" x2="216.57" y2="45.6"/></g></svg>