<?xml version="1.0" encoding="UTF-8"?>
<svg xmlns="http://www.w3.org/2000/svg" version="1.1" viewBox="0 0 269.3 212.6">
  <defs>
    <style>
      .cls-1 {
        fill: #c20016;
      }

      .cls-1, .cls-2, .cls-3, .cls-4, .cls-5, .cls-6, .cls-7, .cls-8, .cls-9, .cls-10, .cls-11 {
        stroke-miterlimit: 10;
        stroke-width: .2px;
      }

      .cls-1, .cls-11 {
        stroke: #c20016;
      }

      .cls-2 {
        stroke-dasharray: 2.6 1.5 1 .5 2.1 1.5;
      }

      .cls-2, .cls-3, .cls-4, .cls-6, .cls-7, .cls-8 {
        stroke-linecap: round;
      }

      .cls-2, .cls-3, .cls-4, .cls-6, .cls-7, .cls-8, .cls-10 {
        stroke: #9b9b9b;
      }

      .cls-2, .cls-3, .cls-4, .cls-6, .cls-7, .cls-8, .cls-11 {
        fill: none;
      }

      .cls-3 {
        stroke-dasharray: 1 .5 2 1.5;
      }

      .cls-12 {
        isolation: isolate;
      }

      .cls-4 {
        stroke-dasharray: 2.5 1.5 1 .5 2 1.5;
      }

      .cls-13 {
        mix-blend-mode: multiply;
      }

      .cls-14 {
        fill: #20201e;
      }

      .cls-5 {
        stroke: #d9d9d9;
      }

      .cls-5, .cls-9 {
        fill: #fff;
      }

      .cls-6 {
        stroke-dasharray: 1 .5 2.1 1.5;
      }

      .cls-8 {
        stroke-dasharray: 5 3 2 1 4 3;
      }

      .cls-9 {
        stroke: #0a0a0d;
      }

      .cls-10 {
        fill: #9b9b9b;
      }
    </style>
  </defs>
  <!-- Generator: Adobe Illustrator 28.6.0, SVG Export Plug-In . SVG Version: 1.2.0 Build 709)  -->
  <g class="cls-12">
    <g id="Ebene_1">
      <g>
        <g>
          <path class="cls-10" d="M263.5,122.9v2.2l-99.4,42.2L5.7,111.4v-2.2l158.5,55.9,99.4-42.2Z"/>
          <path class="cls-5" d="M5.7,88.8l158.5,56.4,91-43.4,8.4,2.1v19.1l-99.4,42.2L5.7,109.3v-20.5Z"/>
          <path class="cls-9" d="M263.5,103.9h0l-99.4,42.1L5.7,90.1h0l158.5,55.9,99.4-42.1Z"/>
          <path class="cls-9" d="M263.5,104.9h0l-99.4,42.2L5.7,91.3h0l158.5,55.9,99.4-42.2Z"/>
          <path class="cls-9" d="M263.5,106h0l-99.4,42.2L5.7,92.4h0l158.5,55.9,99.4-42.2Z"/>
          <path class="cls-9" d="M263.5,107.2h0l-99.4,42.2L5.7,93.5h0l158.5,55.9,99.4-42.2Z"/>
          <path class="cls-9" d="M263.5,108.3h0l-99.4,42.2L5.7,94.7h0l158.5,55.9,99.4-42.2Z"/>
          <path class="cls-9" d="M263.5,109.4h0l-99.4,42.2L5.7,95.8h0l158.5,55.9,99.4-42.2Z"/>
          <path class="cls-9" d="M263.5,110.6h0l-99.4,42.2L5.7,96.9h0l158.5,55.9,99.4-42.2Z"/>
          <path class="cls-9" d="M263.5,111.7h0l-99.4,42.2L5.7,98.1h0l158.5,55.9,99.4-42.2Z"/>
          <path class="cls-9" d="M263.5,112.9h0l-99.4,42.2L5.7,99.2h0l158.5,55.9,99.4-42.2Z"/>
          <path class="cls-9" d="M263.5,114h0l-99.4,42.2L5.7,100.4h0l158.5,55.9,99.4-42.2Z"/>
          <path class="cls-9" d="M263.5,115.1h0l-99.4,42.2L5.7,101.5h0l158.5,55.9,99.4-42.2Z"/>
          <path class="cls-9" d="M263.5,116.3h0l-99.4,42.2L5.7,102.6h0l158.5,55.9,99.4-42.2Z"/>
          <path class="cls-9" d="M263.5,117.4h0l-99.4,42.2L5.7,103.8h0l158.5,55.9,99.4-42.2Z"/>
          <path class="cls-9" d="M263.5,118.5h0l-99.4,42.2L5.7,104.9h0l158.5,55.9,99.4-42.2Z"/>
          <path class="cls-9" d="M263.5,119.7h0l-99.4,42.2L5.7,106h0l158.5,55.9,99.4-42.2Z"/>
          <path class="cls-9" d="M263.5,120.8h0l-99.4,42.2L5.7,107.2h0l158.5,55.9,99.4-42.2Z"/>
          <path class="cls-9" d="M263.5,121.9h0l-99.4,42.2L5.7,108.3h0l158.5,55.9,99.4-42.2Z"/>
          <g class="cls-13">
            <path class="cls-14" d="M10.6,92.8c.2,0,.5.2.8.4.1,0,.3,0,.6.1h.2c0,0,.5.3.5.3,0,.5.2,1.1.5,1.7v.3s.1.2.1.2l.3,1.4v.3c.1.1.2.3.3.4v.5c0,.4.2.8.5,1.4,0,.3,0,.6.2.9v.5c0,0,.4.3.4.3l.4-1,.2-.5v-.4c0,0,.2,0,.2,0v-.3c.3,0,.5.2.6.4,0,.4,0,.7,0,1.1v.2c0,0,0,.2,0,.2v.3c0,0,0,.3,0,.3v.2s0,1,0,1c0,.2,0,.5,0,.8v.2c0,0,0,.3,0,.3,0,.4-.1.9-.1,1.6v.5c0,0-.2,1.2-.2,1.2h-.1s0,.2,0,.2v.2s-.2.2-.2.2v.3s-.2.3-.2.3v.3c-.1.1-.1.3,0,.4v.5c-.3,0-.6,0-.9-.1-.1-.3-.2-.7-.2-1.1v-.6c-.1,0-.3-.3-.3-.3v-.3s-.1-.2-.1-.2c0,0,0-.1,0-.2v-.5c0,0-.1-.4-.1-.4v-.3c-.1,0-.2-.3-.2-.3v-.4c-.1,0-.4-1.3-.4-1.3l-.2-.3c0-.5-.2-1.1-.5-1.8,0-.3-.1-.6-.3-1v-.2s-.2-.4-.2-.4c0-.4-.1-.8-.3-1.3v-.4c-.1-.1-.2-.3-.3-.4,0-.4-.2-1-.5-1.6v-.2s-.1-.2-.1-.2v-.5c0,0-.3-.6-.3-.6l-.2-.5v-1.7s.3-.1.3-.1ZM10.4,99.9h0s0,0,0,0l.5.5c0,.4.2.9.5,1.5v.2c.2.4.3.8.3,1.3v.2c.1.3.2.6.3,1v.4c0,0,.2.3.2.3v.4c.2.3.3.6.4,1v1.5s0,.6,0,.6v.2s0,.3,0,.3v.2c-.3,0-.5-.1-.8-.2l-.8-.3h-.2s-.2-.2-.2-.2h-.1s-.2-.1-.2-.1c0-.1,0-.3-.1-.4,0-.3,0-.7,0-1.2,0-.2,0-.5,0-.8v-.8s0-.2,0-.2v-.6s0-.7,0-.7v-.4c0,0,0-1,0-1,0-.4,0-.9,0-1.4v-.5s0-.4,0-.4v-.3c.1,0,.2,0,.2,0ZM17.5,95.1c.5.3,1.1.6,1.8.8h.1c0,.6,0,1.1,0,1.6v.2s0,.2,0,.2v.9s0,.2,0,.2v.2c0,.1,0,.2.1.4,0,.2,0,.5,0,.8,0,0,0,.2,0,.3,0,.1,0,.2,0,.4v.3c0,0,0,.5,0,.5v.3s0,.6,0,.6v.4c0,.2,0,.5,0,.8v.8s0,.2,0,.2v.3c0,.2,0,.5,0,.8,0,.2,0,.4,0,.6v.5c0,0,0,.4,0,.4v.4c.1.2.1.5,0,.9v.6c0,0,0,.2,0,.2,0,0,0,.1,0,.2v.2s0,.2,0,.2c0,0,0,.1,0,.2v.3s0,.8,0,.8c-.6,0-1.4-.3-2.2-.7-.2-.6-.2-1.4-.2-2.4h0c-.1-.6,0-1.1,0-1.7,0-.4-.1-.8,0-1.1,0-.3,0-.6,0-.9v-3.7c0-.3,0-.7,0-1.1v-3.6c0-.3,0-.6,0-1v-.2s.3-.2.3-.2Z"/>
            <path class="cls-14" d="M22,96.8l.9.3h.2c0,0,1.2.5,1.2.5h.3c.1.7.1,1.3,0,2,0,0,0,.1,0,.2,0,.1,0,.3,0,.6v.2c0,.3,0,.6,0,1v.5c0,.3,0,.6,0,1v.6c0,0,0,.5,0,.5v.5s0,1,0,1v.2s0,.2,0,.2v1s0,.2,0,.2c0,.2,0,.4,0,.6v.3c0,.5,0,1,0,1.5v.3c0,0,0,.5,0,.5v.2s0,.3,0,.3c.4.4.6,1,.6,1.7,0,.3,0,.8,0,1.4,0,0-.2,0-.2,0-1.3-.7-2.2-1.9-2.9-3.5,0-.2,0-.5-.2-.8,0-.4,0-.9,0-1.6v-.2c0,0,0-.1,0-.2v-2.2s0-.2,0-.2v-.2c0-.4-.1-.9,0-1.5,0-.5,0-1.2,0-1.9v-3.7c0-.3,0-.6,0-1v-.2ZM26.9,99.4c0-.3.1-.5.3-.7l1.3.5h.3c0,.1.2.2.2.2h.3c0,.1.2.2.2.2.2.7.2,1.4.2,2.3,0,.3,0,.6,0,1v.2c0,0,0,.2,0,.2v.2s0,.2,0,.2v.6c0,0,0,.3,0,.3v1.4s0,.3,0,.3v.2s0,.3,0,.3v1.4s0,.2,0,.2v.2s0,1.3,0,1.3v.3s0,.2,0,.2v.5s0,.4,0,.4v.6c0,.3,0,.6,0,1-.1.1-.2.3-.2.5-.6.8-1.4,1.3-2.6,1.4,0-.1-.1-.2-.2-.3,0-.3,0-.8,0-1.2v-.2s0-.1,0-.2v-.7c.3-.2.5-.6.6-1.1h.2s0-.4,0-.4c0-.4,0-1-.2-1.8v-5.1c0,0-.2-.5-.2-.5v-.8c0-.3,0-.7,0-1.2,0-.2,0-.5,0-.8v-1Z"/>
            <path class="cls-14" d="M33.2,101c.1,0,.3-.1.4-.3l.9.3h.2c0,0,.6.3.6.3l.2.2h.2c.2.1.5.3.9.5h.2s.5.2.5.2h.2c.3.1.6.3,1,.4h.3c0,.1.4.2.4.2.3.2.7.4,1.2.5l.4.2c0,.1,0,.3.1.4-.1.2-.1.6,0,1v.5c0,0,0,.3,0,.3l-.2.3c-.5,0-1.1-.3-1.9-.7-.2,0-.5-.2-.9-.3-.3,0-.6-.1-1-.3-.2-.2-.5-.3-.7-.4h-.3c0,.3,0,.8,0,1.4v.2s0,.2,0,.2c0,.2,0,.5,0,.9v.3s-.2.2-.2.2v.3s.4.3.4.3c.5,0,1.1.2,1.8.5h.2c0,0,.2.2.2.2l.5.2.2.3v1.5s0,.6,0,.6h0c0,.1-.3.3-.3.3-.3-.1-.6-.2-.9-.2h-.2c-.2-.2-.5-.3-.7-.4h-.2c0,0-.2-.2-.2-.2h-.2c0,0-.2-.3-.2-.3v1.4s0,1.4,0,1.4v.5c0,0,0,.2,0,.2v.6c-.1,0,1.3.5,1.3.5h.2c0,0,.2.2.2.2h.3c0,.1.8.4.8.4h.2c0,0,1,.4,1,.4h.4c.2.2.4.4.7.6v.2c0,0,0,1.5,0,1.5v.2s0,.2,0,.2v.4s0,.2,0,.2c0,0,0,0-.1,0-.3-.2-.7-.4-1.2-.5h-.2c0,0-.2-.2-.2-.2l-.5-.2-.2-.2-2.4-.9-.7-.3-.8-.4h-.3c0-.1-.3,0-.3,0l-.4-.2c0-.4,0-.8,0-1.3v-10.4c0-.3,0-.8,0-1.4v-1.1c0-.4,0-1,0-1.7Z"/>
            <path class="cls-14" d="M45.4,105.2c.4,0,.8.3,1.4.6.2.9.3,1.9.2,3.1v.3c0,.2,0,.5,0,.8v.2c0,.3,0,.7,0,1.1v.2s0,.2,0,.2v.4c0,0,0,.5,0,.5l.2.6c0,.3,0,.7,0,1.3v.2s0,.2,0,.2v.6s0,.3,0,.3v.2s0,.5,0,.5v.5c0,0,0,.5,0,.5v.5s0,.5,0,.5v.5c.5.4,1,.7,1.6.7.3.2.6.4,1,.4.5.3,1.1.6,1.8.7l.3.3c.1.6.1,1.3,0,2.2v.2c-.2,0-.4,0-.7,0-.5-.3-1-.5-1.7-.7h-.2c0,0-.9-.4-.9-.4h-.2c0,0-.4-.2-.4-.2h-.4c0-.1-.2-.2-.2-.2h-.3c0-.1-.4-.2-.4-.2h-.2c0,0-.9-.4-.9-.4h-.3c0-.1-.3-.3-.3-.3h-.3c0-.1-.3-.3-.3-.3l-.2-.2v-3.8c0-.3,0-.8,0-1.3,0-.3,0-.8,0-1.3v-.5c0,0,0-8.5,0-8.5v-.3c.1,0,.6.1.6.1l.6.2c0,0,.1,0,.1,0Z"/>
            <path class="cls-14" d="M56.9,109.2c.4,0,.9.3,1.4.6.2.9.3,1.9.2,3.1v.3c0,.2,0,.5,0,.8v.2c0,.3,0,.7,0,1.1v.2s0,.2,0,.2v.4c0,0,0,.5,0,.5l.2.6c0,.3,0,.7,0,1.3v.2s0,.2,0,.2v.6s0,.3,0,.3v.2s0,.5,0,.5v.5c0,0,0,.5,0,.5v.5s0,.5,0,.5v.5c.5.4,1,.7,1.6.7.3.2.6.4,1,.5.5.3,1.2.6,1.9.7l.3.3c.1.6.1,1.3,0,2.2v.2c-.2,0-.4,0-.7,0-.5-.3-1.1-.5-1.7-.7h-.2c0,0-.9-.4-.9-.4h-.2c0,0-.4-.2-.4-.2h-.4c0-.1-.2-.2-.2-.2h-.3c0-.1-.4-.2-.4-.2h-.2c0,0-1-.4-1-.4h-.3c0-.1-.3-.3-.3-.3h-.3c0-.1-.3-.3-.3-.3l-.2-.2v-3.9c0-.3,0-.8,0-1.3,0-.4,0-.8,0-1.3v-.5c0,0,0-8.6,0-8.6v-.3c.1,0,.7.1.7.1l.6.2c0,0,.1,0,.1,0Z"/>
            <path class="cls-14" d="M66.8,112.9c.1,0,.3-.2.5-.3l1,.3h.2c0,0,.6.3.6.3l.2.2h.2c.3.1.6.3.9.5h.2s.5.2.5.2h.2c.3.1.7.3,1.1.5h.3c0,.1.4.2.4.2.3.2.8.4,1.3.5l.5.2c0,.1,0,.3.2.4-.2.3-.2.6,0,1v.5c0,0,0,.4,0,.4l-.2.3c-.5,0-1.2-.3-2-.7-.2,0-.5-.2-.9-.3-.3,0-.7-.1-1.1-.3-.2-.2-.5-.3-.8-.4h-.3c0,.3,0,.8,0,1.5v.2s0,.2,0,.2c0,.2,0,.5,0,.9v.3s-.2.2-.2.2v.3s.4.3.4.3c.5,0,1.2.2,1.8.5h.2c0,0,.2.2.2.2l.5.2.2.3v1.6s0,.6,0,.6h0c0,.1-.3.3-.3.3-.3-.2-.6-.2-.9-.3l-.2-.2c-.2,0-.5-.1-.8-.3h-.2c0,0-.2-.2-.2-.2h-.2c0,0-.2-.3-.2-.3v1.4s0,1.4,0,1.4v.5c0,0,0,.2,0,.2l-.2.6,1.5.5h.2c0,0,.2.2.2.2h.3c0,.1.8.4.8.4h.2c0,0,1,.4,1,.4h.4c.2.2.5.4.7.6v.2c0,0,0,1.6,0,1.6v.2s0,.2,0,.2v.4s0,.2,0,.2c0,0-.1,0-.2.1-.3-.2-.8-.4-1.2-.5h-.2c0,0-.2-.2-.2-.2l-.5-.2-.2-.2-2.5-.9-.8-.3-.8-.5h-.3c0-.1-.3,0-.3,0l-.5-.2c0-.4,0-.8,0-1.3v-10.7c0-.3,0-.8,0-1.4v-1.1c0-.4,0-1,0-1.8Z"/>
            <path class="cls-14" d="M79,116.9c.4.2.9.3,1.4.4.2.1.5.3.8.5,0,.3,0,.8,0,1.3h0c0,.1,0,.5,0,.5v.2s0,.3,0,.3v.3s0,.2,0,.2v.3c0,0,0,.4,0,.4v.6s0,.4,0,.4v.3s0,.6,0,.6c0,.4,0,.8,0,1.3v.6s0,.3,0,.3c0,.6-.1,1.4,0,2.5v.6c0,.5,0,1.1,0,1.7v.6c0,0,.2,1.8.2,1.8v1.6s-.2.5-.2.5l-1.4-.5h-.3c0-.1-.2-.2-.2-.2h-.3c0-.1-.3-.2-.3-.2v-3.8s-.1-.3-.1-.3v-.4c0-.3,0-.7,0-1.1v-.4c0-.4,0-.8,0-1.3v-.3c0,0,0-.2,0-.2v-.4c0-.5-.1-1.2,0-2v-.6c0-.4,0-1,0-1.8v-.9s0-.3,0-.3v-1.1c0-.4,0-1-.2-1.8v-.2c.2,0,.5,0,.7,0ZM82.6,119.1c0-.6.3-.8.9-.6,2.2,1,3.4,2.6,3.4,4.9.5,2.1,0,3.5-1.4,4.1v.3c.3.2.6.5,1,1h.2c0,.1.2.8.2.8,0,.2,0,.5.2.7v1.6s0,.6,0,.6v.2s0,.4,0,.4v.3s0,.5,0,.5v1.6s0,.2,0,.2v.3s0,.2,0,.2v.2c-.4,0-.9-.2-1.5-.5h-.3s-.2-.1-.2-.1h-.2c0-.1-.2-.1-.2-.1h-.4c-.1-.7-.1-1.4,0-2.2v-3.1c0-.3,0-.7-.1-1.1v-.2c-.3-.4-.6-.7-1-.8l-.2-.5c0-.4,0-1,0-1.6v-.2c.2-.3.5-.5,1-.4.7-2,.3-3.6-1.1-4.8.2-.5,0-1-.2-1.6Z"/>
            <path class="cls-14" d="M90.6,123.1c0-.6,0-1.3.1-2.1l1.4.5h.3c0,.1.2.2.2.2h.3c0,.1.2.4.2.4.2.8.2,1.6,0,2.4.1.5.2,1.2.2,1.9h0c0,.1,0,.4,0,.4v1.4s0,.4,0,.4v.3s0,1.4,0,1.4v.3s0,.2,0,.2v.2c0,0,0,.6,0,.6v.5s0,.6,0,.6v1.4s0,.3,0,.3v1.6s0,.2,0,.2v.6s0,.6,0,.6v.6s0,.5,0,.5c-.7,0-1.7-.4-2.8-.8,0-.8-.1-1.8-.1-3.1v-3.1s0-.3,0-.3v-.5c0,0,0-.9,0-.9,0-.5-.1-1,0-1.6v-5.3ZM95.3,122.5c2.6,1.3,3.8,3.5,3.6,6.5.2,2.9-1.1,3.9-3.8,3,0-.5-.1-1.1,0-1.8v-.8c.6,0,1-.3,1.1-.9,0-.4,0-.9,0-1.5v-.9c-.2-.5-.6-.8-1-1,0-.3,0-.7,0-1v-1.2c0,0,0-.2,0-.2l.3-.2Z"/>
            <path class="cls-14" d="M102.1,125c.4.2.9.3,1.4.4.2.1.5.3.8.5,0,.4,0,.8,0,1.3h0c0,.1,0,.5,0,.5v.2s0,.3,0,.3v.3s0,.2,0,.2v.3c0,0,0,.4,0,.4v.6s0,.4,0,.4v.3s0,.6,0,.6c0,.4,0,.8,0,1.3v.7s0,.3,0,.3c0,.6-.1,1.4,0,2.5v.6c0,.5,0,1.1,0,1.8v.6c0,0,.2,1.8.2,1.8v1.6s-.2.5-.2.5l-1.5-.5h-.3c0-.1-.2-.2-.2-.2h-.3c0-.1-.3-.2-.3-.2v-3.8s-.1-.3-.1-.3v-.4c0-.3,0-.7,0-1.1v-.4c0-.4,0-.8,0-1.3v-.3c0,0,0-.2,0-.2v-.4c0-.6-.1-1.2-.1-2.1v-.6c0-.4,0-1,0-1.8v-.9s0-.3,0-.3v-1.1c0-.4,0-1.1-.2-1.8v-.2c.3,0,.5,0,.7,0ZM105.9,127.3c0-.6.3-.8,1-.6,2.3,1,3.5,2.6,3.5,5,.5,2.1,0,3.5-1.4,4.1v.3c.3.2.7.6,1,1h.2c0,.1.3.8.3.8,0,.2,0,.5.2.7v1.6s0,.7,0,.7v.2s0,.4,0,.4v.3s0,.5,0,.5v1.6s0,.2,0,.2v.3s0,.2,0,.2v.2c-.5,0-.9-.2-1.5-.5h-.3s-.2-.1-.2-.1h-.2c0-.1-.2-.1-.2-.1l-.4-.2c-.1-.6-.1-1.3,0-2.1v-3.2c0-.3,0-.7-.1-1.1v-.2c-.3-.4-.6-.7-1.1-.9l-.2-.5c0-.4,0-1,0-1.7v-.2c.2-.3.5-.5,1-.4.7-2,.4-3.7-1.1-4.9.2-.5.1-1-.2-1.6Z"/>
            <path class="cls-14" d="M116.1,130c.5,0,1.1.3,1.7.7l.2,1.4c0,.1,0,.4,0,.6v.2c0,0,0,.2,0,.2v.2s0,.4,0,.4v1.4s0,.2,0,.2v.8s0,.4,0,.4v1.1s0,1.5,0,1.5v.3s0,.6,0,.6v.2s0,.2,0,.2v.2s0,1,0,1v.2s0,.2,0,.2v1s0,.2,0,.2v1.4s0,.3,0,.3v1.6s0,.2,0,.2v.6c-.4-.2-1-.3-1.6-.3-.4-.3-.8-.5-1.3-.6v-.5c0,0-.1-4.6-.1-4.6v-.3c0,0,0-.4,0-.4v-.5c0,0,0-.4,0-.4v-.5c-.1-.3,0-.6,0-1v-.2c0,0,0-2.4,0-2.4v-.3s0-1.4,0-1.4c0-.7,0-1.5,0-2.5v-.4c0,0,0-.2,0-.2v-.5c0,0,0-.8,0-.8h.3c.3,0,.5,0,.8,0h.2Z"/>
            <path class="cls-14" d="M131.3,152.3c0,0-.1,0-.2.1-.5-.1-1-.4-1.5-1-.1-.6-.4-1.3-.8-2.2v-.4c0,0-.2-.2-.2-.2-.1-.4-.3-.9-.6-1.4v-.3c0,0-.2-.3-.2-.3,0-.4-.3-.8-.6-1.3v-.2s-.2-.4-.2-.4l-.2-.3c0-.4-.3-.8-.6-1.3,0-.2,0-.4-.2-.5,0,0,0-.1,0-.2-.1-.5-.3-1-.7-1.5v-.2s-.2-.5-.2-.5l-.3-.5-.2-.5c0-.4-.3-.9-.7-1.5v-.2c-.2-.3-.3-.6-.5-1l-.2-.2v-.2c-.2-.4-.3-.8-.7-1.3l-.2-.9c0-.3,0-.6,0-.9v-.6c.4,0,.9.2,1.5.5h.6c0,0,.3.2.3.2l.2.2c.1.5.4,1.1.8,1.9,0,0,0,.1,0,.2,0,0,0,.2,0,.3,0,.3.2.6.3.9l.2.3c0,0,0,.2,0,.3l.2.5c0,.3.3.7.5,1.1v.2s.2.3.2.3c0,.2.1.4.2.6l.2.5.2.5.3.6.2.6.2.4.2.6.2.5.2.6c.2.5.4,1,.8,1.7,0,.4.2.8.5,1.2,0,.2,0,.4.2.7l.3.6c0,.2,0,.4.2.6v2s0,.2,0,.2v.2c0,0,0,1,0,1ZM124.3,150.1c-.6-.1-1.2-.5-1.7-1v-1s0-.2,0-.2v-1.4s0-.3,0-.3v-.2c0-.3,0-.6,0-.9,0-.3,0-.6,0-1.1,0-.3,0-.7,0-1.1,0-.3,0-.6,0-1,0-.1,0-.3,0-.5v-.3c0-.4,0-.7,0-1.2,0-.5,0-1,0-1.5v-.2s.3.2.3.2c0,.2.2.5.4.8.1.8.5,1.7,1,2.5v.4c0,0,.4.7.4.7l.4,1.1v.2c0,0,.3.3.3.3v.3s.3.5.3.5v.4c0,0,.2.4.2.4,0,.1,0,.3.2.5-.3.9-.3,1.9,0,3.3h0c0,.1,0,.8,0,.8l-1.6-.4ZM131.2,144.9l-.7-.5v-.7s-.3-.8-.3-.8l-.3-.9-.2-.2v-.3c0,0-.2-.2-.2-.2,0-.3-.2-.6-.3-.9l-.2-.3c0-.1,0-.2-.2-.3v-.4c0,0-.2-.4-.2-.4l-.3-.3v-.4c0,0-.3-.3-.3-.3,0-.2,0-.4,0-.6v-.6c0-.4,0-.9,0-1.4,0-.2,0-.5,0-.8h.5c.5.3,1.1.5,1.9.7h.3c0,.2,0,.2.2.3.2.7.2,1.6,0,2.5v.3c0,0,0,1.4,0,1.4,0,.2,0,.5,0,.8,0,.2,0,.5,0,.7v.2s0,.7,0,.7v.3s0,1.1,0,1.1v1.1c0,0,0,.4,0,.4Z"/>
            <path class="cls-14" d="M143.1,139.4l.4.2c.3,1,.4,2.1.2,3.1l-1.7-.6h-.3c0,0-.2-.2-.2-.2h-.2c0-.1-.3-.2-.3-.2l-.3-.2v1s0,.2,0,.2v1.4s0,.3,0,.3v1.1s0,.4,0,.4v.9s0,.3,0,.3v.4c0,0,0,.5,0,.5v.4c0,0,0,.5,0,.5v.3c0,.4,0,.8,0,1.3v.5s0,.5,0,.5v.6s0,.7,0,.7c0,.3,0,.8,0,1.3v.3s0,.2,0,.2v.6s0,.6,0,.6c-.6,0-1.3-.1-2.1-.6-.2,0-.6,0-.9-.2l-.3-1.1c.1-.3.1-.7,0-1.2v-1.4c0,0,0-.1,0-.2,0-.5,0-1.3-.1-2.2,0-.3,0-.6,0-1.1v-.3c0-.4,0-.8,0-1.3v-4.1s0-.5,0-.5v-1.1c0,0-.3-.2-.3-.2-.3,0-.6-.2-.9-.2-.3-.2-.7-.3-1.1-.5h-.3c0,0-.2-.2-.2-.2l-.3-.2c-.1-.4-.2-.9-.2-1.5v-.9s0-.4,0-.4h0c.5,0,1,.1,1.7.4h.3c0,0,.9.4.9.4l1.5.5h.2c.4.3,1,.4,1.6.6h.3c0,0,.6.3.6.3h.3c0,0,.4.2.4.2l.7.2h.3Z"/>
            <path class="cls-14" d="M148.8,141.4c0,0,.2,0,.3,0,.3.1.7.3,1.1.6,0,.4,0,.8,0,1.4,0,.3,0,.6,0,.9h0c0,.1,0,.4,0,.4,0,.2-.1.4-.2.6-.2.1-.3.3-.5.5,0,.2,0,.6,0,1,.8,1.1,1.7,2,2.9,2.9.3.4.7.9,1.2,1.3l.4.5c.3.3.7.8,1.1,1.3h.2c0,.1.8,2,.8,2l.2.4c0,.3.1.6.3.9.2,2.1-.5,3.6-2.3,4.4-.6.1-1.2.1-2-.1-.1-.6-.2-1.3-.1-2.2v-1.3c.7,0,1.1-.6,1.2-1.6-.2-.6-.6-1.2-1.2-1.9l-.6-.4c-.2-.3-.5-.6-.9-1l-.3-.2v-.2c0,0-.4-.2-.4-.2v-.2c-2.8-2.1-4-4.7-3.7-7.7.2-.1.4-.3.5-.6.2-.2.3-.4.5-.7.2,0,.3-.1.4-.3.4,0,.8-.1,1.2-.4ZM145.9,153.7c-.1-.9.7-1.1,2.3-.5l.7.3c.2,1.4.7,2.5,1.7,3.4.2.9.2,1.9,0,3.1l-.6-.4h-.3c-1.9-1.5-3.2-3.5-3.8-5.9ZM151.3,142.3c2.1.9,3.6,2.6,4.4,5,.2.5.2,1,0,1.4-.4-.1-.9-.3-1.5-.4h-.3c0-.1-.2-.1-.3-.1h-.4c0-.1-.4-.2-.4-.2h-.3c0,0-.3-.4-.3-.4,0-.3-.1-.6-.1-1-.1-.3-.4-.6-.7-.9l-.4-.6v-2c0-.2,0-.5-.1-.7v-.2Z"/>
            <path class="cls-14" d="M157.1,159.7c.4-.9,1.2-1.3,2.4-1.1h.2c0,0-.2,0-.2,0h.2c1.8,1.9,2.2,3.3,1,4.2-1.8.3-3-.7-3.6-3.1Z"/>
          </g>
          <line class="cls-8" x1="16.1" y1="92.4" x2="16" y2="113.4"/>
          <g>
            <line class="cls-7" x1="29.9" y1="97.3" x2="29.9" y2="99.8"/>
            <line class="cls-6" x1="29.9" y1="101.4" x2="29.9" y2="105.8"/>
            <line class="cls-2" x1="29.9" y1="106.5" x2="29.9" y2="115"/>
            <line class="cls-7" x1="29.9" y1="115.8" x2="29.8" y2="118.3"/>
          </g>
          <g>
            <line class="cls-7" x1="43.8" y1="102.2" x2="43.8" y2="104.7"/>
            <line class="cls-6" x1="43.8" y1="106.3" x2="43.7" y2="110.7"/>
            <line class="cls-2" x1="43.7" y1="111.4" x2="43.7" y2="119.9"/>
            <line class="cls-7" x1="43.7" y1="120.7" x2="43.7" y2="123.2"/>
          </g>
          <g>
            <line class="cls-7" x1="57.6" y1="107.1" x2="57.6" y2="109.6"/>
            <line class="cls-6" x1="57.6" y1="111.2" x2="57.6" y2="115.6"/>
            <line class="cls-2" x1="57.6" y1="116.3" x2="57.5" y2="124.8"/>
            <line class="cls-7" x1="57.5" y1="125.6" x2="57.5" y2="128.1"/>
          </g>
          <g>
            <line class="cls-7" x1="71.5" y1="112" x2="71.4" y2="114.5"/>
            <line class="cls-6" x1="71.4" y1="116.1" x2="71.4" y2="120.5"/>
            <line class="cls-2" x1="71.4" y1="121.2" x2="71.4" y2="129.7"/>
            <line class="cls-7" x1="71.4" y1="130.5" x2="71.3" y2="133"/>
          </g>
          <g>
            <line class="cls-7" x1="85.3" y1="116.9" x2="85.3" y2="119.4"/>
            <line class="cls-6" x1="85.3" y1="121" x2="85.2" y2="125.4"/>
            <line class="cls-2" x1="85.2" y1="126.1" x2="85.2" y2="134.6"/>
            <line class="cls-7" x1="85.2" y1="135.4" x2="85.2" y2="137.9"/>
          </g>
          <g>
            <line class="cls-7" x1="99.1" y1="121.8" x2="99.1" y2="124.3"/>
            <line class="cls-6" x1="99.1" y1="125.9" x2="99.1" y2="130.3"/>
            <line class="cls-2" x1="99.1" y1="131" x2="99" y2="139.5"/>
            <line class="cls-7" x1="99" y1="140.3" x2="99" y2="142.8"/>
          </g>
          <g>
            <line class="cls-7" x1="113" y1="126.7" x2="112.9" y2="129.2"/>
            <line class="cls-6" x1="112.9" y1="130.8" x2="112.9" y2="135.2"/>
            <line class="cls-2" x1="112.9" y1="135.9" x2="112.9" y2="144.4"/>
            <line class="cls-7" x1="112.9" y1="145.2" x2="112.8" y2="147.7"/>
          </g>
          <g>
            <line class="cls-7" x1="126.8" y1="131.9" x2="126.8" y2="134.4"/>
            <line class="cls-3" x1="126.8" y1="135.9" x2="126.7" y2="140.2"/>
            <line class="cls-4" x1="126.7" y1="141" x2="126.7" y2="149.3"/>
            <line class="cls-7" x1="126.7" y1="150.1" x2="126.7" y2="152.6"/>
          </g>
          <g>
            <line class="cls-7" x1="140.6" y1="136.8" x2="140.6" y2="139.3"/>
            <line class="cls-3" x1="140.6" y1="140.8" x2="140.6" y2="145.1"/>
            <line class="cls-4" x1="140.6" y1="145.9" x2="140.5" y2="154.2"/>
            <line class="cls-7" x1="140.5" y1="155" x2="140.5" y2="157.5"/>
          </g>
          <g>
            <line class="cls-7" x1="154.5" y1="141.5" x2="154.4" y2="144"/>
            <line class="cls-6" x1="154.4" y1="145.5" x2="154.4" y2="149.9"/>
            <line class="cls-2" x1="154.4" y1="150.6" x2="154.4" y2="159.1"/>
            <line class="cls-7" x1="154.4" y1="159.9" x2="154.3" y2="162.4"/>
          </g>
          <polygon class="cls-1" points="164.2 145.5 255.6 101.9 263.5 103.8 164.2 145.5"/>
          <g>
            <path class="cls-10" d="M5.7,86.5l158.5,56.4,97.2-46.2v2.3l-97.2,46.4L5.7,88.8v-2.3"/>
            <polygon class="cls-5" points="164.2 142.9 5.7 86.5 108 45.3 261.4 96.6 164.2 142.9"/>
          </g>
        </g>
        <g>
          <polyline class="cls-11" points="164.2 165.2 263.3 123 263.3 123"/>
          <polyline class="cls-11" points="263.3 123 164.2 165.2 5.7 109.4 5.7 109.4"/>
        </g>
        <line class="cls-11" x1="164.2" y1="145.4" x2="5.7" y2="88.8"/>
      </g>
    </g>
  </g>
</svg>