<?xml version="1.0" encoding="UTF-8"?>
<svg id="Ebene_1" data-name="Ebene 1" xmlns="http://www.w3.org/2000/svg" xmlns:xlink="http://www.w3.org/1999/xlink" version="1.1" viewBox="0 0 340.2 240.9">
  <defs>
    <style>
      .cls-1 {
        stroke-width: .2px;
      }

      .cls-1, .cls-2, .cls-3, .cls-4, .cls-5 {
        fill: none;
      }

      .cls-1, .cls-3, .cls-4, .cls-5 {
        stroke-miterlimit: 10;
      }

      .cls-1, .cls-3, .cls-5 {
        stroke: #000;
      }

      .cls-6 {
        clip-path: url(#clippath);
      }

      .cls-2, .cls-7, .cls-8 {
        stroke-width: 0px;
      }

      .cls-3 {
        stroke-linecap: round;
        stroke-width: 1.9px;
      }

      .cls-4 {
        stroke: #20201e;
        stroke-width: .2px;
      }

      .cls-7 {
        fill: #ededeb;
      }

      .cls-9 {
        clip-path: url(#clippath-1);
      }

      .cls-10 {
        clip-path: url(#clippath-2);
      }

      .cls-5 {
        stroke-width: .2px;
      }

      .cls-8 {
        fill: url(#Unbenannter_Verlauf_4);
      }
    </style>
    <clipPath id="clippath">
      <rect class="cls-2" x="19.1" y="14.2" width="295.8" height="215.9"/>
    </clipPath>
    <clipPath id="clippath-1">
      <path class="cls-2" d="M208.1,208c-9.2,6.6-16.1,12.8-15.5,14.5.5,1.5,9-3.3,18.2-9.9l103.9-71.6-11.8-5.9-94.7,72.9Z"/>
    </clipPath>
    <linearGradient id="Unbenannter_Verlauf_4" data-name="Unbenannter Verlauf 4" x1="-125.4" y1="331.9" x2="-124.4" y2="331.9" gradientTransform="translate(15495.7 40692.1) scale(122.1 -122.1)" gradientUnits="userSpaceOnUse">
      <stop offset="0" stop-color="#000"/>
      <stop offset="0" stop-color="#131313"/>
      <stop offset="0" stop-color="#323133"/>
      <stop offset="0" stop-color="#4c4b4e"/>
      <stop offset="0" stop-color="#626064"/>
      <stop offset="0" stop-color="#727175"/>
      <stop offset="0" stop-color="#7e7c81"/>
      <stop offset="0" stop-color="#858388"/>
      <stop offset="0" stop-color="#87858a"/>
      <stop offset=".3" stop-color="#87858a"/>
      <stop offset="1" stop-color="#fff"/>
      <stop offset="1" stop-color="#fff"/>
    </linearGradient>
    <clipPath id="clippath-2">
      <rect class="cls-2" x="19.1" y="14.2" width="295.8" height="215.9"/>
    </clipPath>
  </defs>
  <g class="cls-6">
    <path class="cls-7" d="M187.9,226.3c-3.3-6.5,1.8-16,11.4-22.9l114.2-82.5L146.2,14.3,31.9,96.9s-2.9,1.8-7.7,6.4c-3.3,3.1-4.1,5.9-4.8,9-.7,3.1.8,6.8.8,6.8l167.7,107.3Z"/>
    <path class="cls-5" d="M187.9,226.3c-3.3-6.5,1.8-16,11.4-22.9l114.2-82.5L146.2,14.3,31.9,96.9s-2.9,1.8-7.7,6.4c-3.3,3.1-4.1,5.9-4.8,9-.7,3.1.8,6.8.8,6.8l167.7,107.3Z"/>
    <path class="cls-7" d="M23.7,116.2c1.3.9,4,2.6,5.3,3.4"/>
    <path class="cls-3" d="M23.7,116.2c1.3.9,4,2.6,5.3,3.4"/>
    <path class="cls-7" d="M31.4,121.1c1.3.9,4,2.6,5.3,3.4"/>
    <path class="cls-3" d="M31.4,121.1c1.3.9,4,2.6,5.3,3.4"/>
    <path class="cls-7" d="M39.1,126.1c1.3.9,4,2.6,5.3,3.4"/>
    <path class="cls-3" d="M39.1,126.1c1.3.9,4,2.6,5.3,3.4"/>
    <path class="cls-7" d="M46.8,131c1.3.9,4,2.6,5.3,3.4"/>
    <path class="cls-3" d="M46.8,131c1.3.9,4,2.6,5.3,3.4"/>
    <path class="cls-7" d="M54.5,136c1.3.9,4,2.6,5.3,3.4"/>
    <path class="cls-3" d="M54.5,136c1.3.9,4,2.6,5.3,3.4"/>
    <path class="cls-7" d="M62.3,140.9c1.3.9,4,2.6,5.3,3.4"/>
    <path class="cls-3" d="M62.3,140.9c1.3.9,4,2.6,5.3,3.4"/>
    <path class="cls-7" d="M70,145.9c1.3.9,4,2.6,5.3,3.4"/>
    <path class="cls-3" d="M70,145.9c1.3.9,4,2.6,5.3,3.4"/>
    <path class="cls-7" d="M77.7,150.8c1.3.9,4,2.6,5.3,3.4"/>
    <path class="cls-3" d="M77.7,150.8c1.3.9,4,2.6,5.3,3.4"/>
    <path class="cls-7" d="M85.4,155.8c1.3.9,4,2.6,5.3,3.4"/>
    <path class="cls-3" d="M85.4,155.8c1.3.9,4,2.6,5.3,3.4"/>
    <path class="cls-7" d="M93.2,160.7c1.3.9,4,2.6,5.3,3.4"/>
    <path class="cls-3" d="M93.2,160.7c1.3.9,4,2.6,5.3,3.4"/>
    <path class="cls-7" d="M100.9,165.7c1.3.9,4,2.6,5.3,3.4"/>
    <path class="cls-3" d="M100.9,165.7c1.3.9,4,2.6,5.3,3.4"/>
    <path class="cls-7" d="M108.6,170.7c1.3.9,4,2.6,5.3,3.4"/>
    <path class="cls-3" d="M108.6,170.7c1.3.9,4,2.6,5.3,3.4"/>
    <path class="cls-7" d="M116.3,175.6c1.3.9,4,2.6,5.3,3.4"/>
    <path class="cls-3" d="M116.3,175.6c1.3.9,4,2.6,5.3,3.4"/>
    <path class="cls-7" d="M124,180.6c1.3.9,4,2.6,5.3,3.4"/>
    <path class="cls-3" d="M124,180.6c1.3.9,4,2.6,5.3,3.4"/>
    <path class="cls-7" d="M131.8,185.5c1.3.9,4,2.6,5.3,3.4"/>
    <path class="cls-3" d="M131.8,185.5c1.3.9,4,2.6,5.3,3.4"/>
    <path class="cls-7" d="M139.5,190.5c1.3.9,4,2.6,5.3,3.4"/>
    <path class="cls-3" d="M139.5,190.5c1.3.9,4,2.6,5.3,3.4"/>
    <path class="cls-7" d="M147.2,195.4c1.3.9,4,2.6,5.3,3.4"/>
    <path class="cls-3" d="M147.2,195.4c1.3.9,4,2.6,5.3,3.4"/>
    <path class="cls-7" d="M154.9,200.4c1.3.9,4,2.6,5.3,3.4"/>
    <path class="cls-3" d="M154.9,200.4c1.3.9,4,2.6,5.3,3.4"/>
    <path class="cls-7" d="M162.7,205.3c1.3.9,4,2.6,5.3,3.4"/>
    <path class="cls-3" d="M162.7,205.3c1.3.9,4,2.6,5.3,3.4"/>
    <path class="cls-7" d="M170.4,210.3c1.3.9,4,2.6,5.3,3.4"/>
    <path class="cls-3" d="M170.4,210.3c1.3.9,4,2.6,5.3,3.4"/>
    <path class="cls-7" d="M178.1,215.2c1.3.9,4,2.6,5.3,3.4"/>
    <path class="cls-3" d="M178.1,215.2c1.3.9,4,2.6,5.3,3.4"/>
    <path class="cls-1" d="M302.8,135.3l11.8,5.9-103.9,71.6c-9.2,6.6-17.7,11.4-18.2,9.9-.6-1.7,6.3-8,15.5-14.5l105.6-81.6-.7-.4M312.8,125.2l.8.5-107.9,81.5c-9.4,6.7-16,13.9-14.7,17,1.1,2.6,10.3-1.6,19.7-8.3l103.8-73.5-.7-.5M312.8,123.9l.8.4-110.2,81.9c-9.6,6.9-15.9,14.9-13.9,19.1,1.7,3.6,11.5,0,21.1-6.8l104-75-1-.7M312.8,122.8l.8.5-111.9,81.9c-9.6,6.9-15.5,15.6-12.8,21,2.3,4.6,12.4,1.8,22.1-5.1l103.7-76.1-.9-.7M312.6,121.6l1,.6-113.7,81.9c-9.6,6.9-15.1,16.3-11.8,22.8,2.8,5.5,13.4,3.4,23-3.5l103.5-77.3-.7-.6"/>
  </g>
  <g class="cls-9">
    <rect class="cls-8" x="192" y="135.1" width="122.6" height="88.9"/>
  </g>
  <g class="cls-10">
    <path class="cls-4" d="M302.8,135.1l11.8,5.9-103.9,71.6c-9.2,6.6-17.7,11.4-18.2,9.9-.6-1.7,6.3-8,15.5-14.5l94.7-72.9Z"/>
  </g>
</svg>