<?xml version="1.0" encoding="utf-8"?>
<!-- Generator: $$$/GeneralStr/196=Adobe Illustrator 27.6.0, SVG Export Plug-In . SVG Version: 6.00 Build 0)  -->
<svg version="1.1" id="Ebene_1" xmlns="http://www.w3.org/2000/svg" xmlns:xlink="http://www.w3.org/1999/xlink" x="0px" y="0px"
	 viewBox="0 0 269.3 212.6" style="enable-background:new 0 0 269.3 212.6;" xml:space="preserve">
<style type="text/css">
	.st0{fill:#FFFFFF;}
	.st1{fill:#FFFFFF;stroke:#20201E;stroke-width:0.2;stroke-miterlimit:10;}
	.st2{fill:none;stroke:#20201E;stroke-width:0.2;stroke-miterlimit:10;}
	.st3{fill:none;stroke:#C20016;stroke-miterlimit:10;}
	.st4{fill:none;stroke:#C20016;stroke-miterlimit:10;stroke-dasharray:4.1,2,4.1,2;}
	.st5{fill:none;stroke:#C20016;stroke-miterlimit:10;stroke-dasharray:4.1,2,4.1,2,4.1,2;}
</style>
<g>
	<g id="Ebene_1_00000063611807484194803340000004157343459548641703_">
		<g id="Ebene_1-2_00000103975294572533994480000007141459377321577640_">
			<g id="Ebene_1-2">
				<g>
					<g>
						<path class="st0" d="M237.7,105.6l-0.8,2l1,0.4c0,0,0.5,0,0.3-0.8S237.7,105.6,237.7,105.6L237.7,105.6z"/>
						<g>
							<g>
								<path class="st1" d="M236.8,107.7c1.4-2.7,0.3-5.4-3.3-6.9L110.6,50.3c-4.5-1.9-12.1-0.8-16.9,2.4L26.1,97
									c-4.4,3-3.6,3.6,0.4,1.5"/>
								<path class="st1" d="M238.2,107.6l4.4,2.2c5.1,2.2,5.2,6.5,0,9.3l-77.9,43.2c-4.9,2.2-5.9,1-0.8-2.8l70-48.8
									c1.4-1,2.4-2.1,3-3.2"/>
							</g>
							<g>
								<path class="st2" d="M242.6,109.8c5.1,2.2,4,6.5-1.3,9.4l-73.5,40.7c-5.5,2.7-6,2.1-1.8-1.1c0,0,52.8-36.5,70.3-49.1
									c3-2.2,1.7-3,1.3-4.1"/>
								<path class="st2" d="M242.6,109.8c5.1,2.2,2.5,6.5-2.7,9.4l-67.6,37.5c-5.5,2.7-6,2.8-1.9-0.3c0,0,48.9-33.3,66.4-46
									c0.9-0.7,2-2.1,0.8-4.8"/>
							</g>
							<path class="st1" d="M160.5,163c-0.1-0.5,1-1.8,3.6-3.6l70-48.8c4.9-3.5,4.8-8-0.3-10.1L110.9,50c-4.5-1.8-12.1-0.8-16.9,2.4
								L26.3,96.7c-1.9,1.3-3.1,2.3-3.4,2.7L160.5,163z"/>
						</g>
					</g>
					<g>
						<line class="st3" x1="26.5" y1="98.5" x2="28.3" y2="99.3"/>
						<line class="st4" x1="30.1" y1="100.2" x2="40.3" y2="104.9"/>
						<line class="st5" x1="41.2" y1="105.4" x2="156.7" y2="159.3"/>
						<line class="st3" x1="157.6" y1="159.7" x2="159.4" y2="160.6"/>
					</g>
				</g>
			</g>
		</g>
	</g>
</g>
</svg>
