<?xml version="1.0" encoding="UTF-8"?>
<svg id="Ebene_1" data-name="Ebene 1" xmlns="http://www.w3.org/2000/svg" xmlns:xlink="http://www.w3.org/1999/xlink" version="1.1" viewBox="0 0 340.2 240.9">
  <defs>
    <style>
      .cls-1 {
        stroke-width: .2px;
      }

      .cls-1, .cls-2, .cls-3, .cls-4, .cls-5 {
        fill: none;
      }

      .cls-1, .cls-3, .cls-4, .cls-5 {
        stroke-miterlimit: 10;
      }

      .cls-1, .cls-3, .cls-5 {
        stroke: #000;
      }

      .cls-6 {
        clip-path: url(#clippath);
      }

      .cls-2, .cls-7, .cls-8 {
        stroke-width: 0px;
      }

      .cls-3 {
        stroke-linecap: round;
        stroke-width: 1.9px;
      }

      .cls-4 {
        stroke: #20201e;
        stroke-width: .2px;
      }

      .cls-5 {
        stroke-width: .2px;
      }

      .cls-7 {
        fill: #d4d5d1;
      }

      .cls-8 {
        fill: #ededea;
      }
    </style>
    <clipPath id="clippath">
      <rect class="cls-2" x="42.1" y="37.1" width="255.6" height="170.1"/>
    </clipPath>
  </defs>
  <g class="cls-6">
    <path class="cls-7" d="M188,204.1c-2.9-5.1,1.6-12.6,9.8-18l98.7-64.9L152,37.2,53.2,102.2s-2.5,1.4-6.7,5c-2.9,2.5-3.5,4.6-4.1,7.1-.6,2.5.7,5.3.7,5.3l144.9,84.5Z"/>
    <path class="cls-5" d="M188,204.1c-2.9-5.1,1.6-12.6,9.8-18l98.7-64.9L152,37.2,53.2,102.2s-2.5,1.4-6.7,5c-2.9,2.5-3.5,4.6-4.1,7.1-.6,2.5.7,5.3.7,5.3l144.9,84.5Z"/>
    <path class="cls-8" d="M46.2,117.6c1.1.6,3.3,1.7,4.3,2.3"/>
    <path class="cls-3" d="M46.2,117.6c1.1.6,3.3,1.7,4.3,2.3"/>
    <path class="cls-8" d="M52.9,121.5c1.1.6,3.3,1.7,4.3,2.3"/>
    <path class="cls-3" d="M52.9,121.5c1.1.6,3.3,1.7,4.3,2.3"/>
    <path class="cls-8" d="M59.6,125.4c1.1.6,3.3,1.7,4.3,2.3"/>
    <path class="cls-3" d="M59.6,125.4c1.1.6,3.3,1.7,4.3,2.3"/>
    <path class="cls-8" d="M66.2,129.3c1.1.6,3.3,1.7,4.3,2.3"/>
    <path class="cls-3" d="M66.2,129.3c1.1.6,3.3,1.7,4.3,2.3"/>
    <path class="cls-8" d="M72.9,133.2c1.1.6,3.3,1.7,4.3,2.3"/>
    <path class="cls-3" d="M72.9,133.2c1.1.6,3.3,1.7,4.3,2.3"/>
    <path class="cls-8" d="M79.6,137.1c1.1.6,3.3,1.7,4.3,2.3"/>
    <path class="cls-3" d="M79.6,137.1c1.1.6,3.3,1.7,4.3,2.3"/>
    <path class="cls-8" d="M86.3,141c1.1.6,3.3,1.7,4.3,2.3"/>
    <path class="cls-3" d="M86.3,141c1.1.6,3.3,1.7,4.3,2.3"/>
    <path class="cls-8" d="M92.9,144.9c1.1.6,3.3,1.7,4.3,2.3"/>
    <path class="cls-3" d="M92.9,144.9c1.1.6,3.3,1.7,4.3,2.3"/>
    <path class="cls-8" d="M99.6,148.8c1.1.6,3.3,1.7,4.3,2.3"/>
    <path class="cls-3" d="M99.6,148.8c1.1.6,3.3,1.7,4.3,2.3"/>
    <path class="cls-8" d="M106.3,152.7c1.1.6,3.3,1.7,4.3,2.3"/>
    <path class="cls-3" d="M106.3,152.7c1.1.6,3.3,1.7,4.3,2.3"/>
    <path class="cls-8" d="M113,156.6c1.1.6,3.3,1.7,4.3,2.3"/>
    <path class="cls-3" d="M113,156.6c1.1.6,3.3,1.7,4.3,2.3"/>
    <path class="cls-8" d="M119.6,160.5c1.1.6,3.3,1.7,4.3,2.3"/>
    <path class="cls-3" d="M119.6,160.5c1.1.6,3.3,1.7,4.3,2.3"/>
    <path class="cls-8" d="M126.3,164.4c1.1.6,3.3,1.7,4.3,2.3"/>
    <path class="cls-3" d="M126.3,164.4c1.1.6,3.3,1.7,4.3,2.3"/>
    <path class="cls-8" d="M133,168.3c1.1.6,3.3,1.7,4.3,2.3"/>
    <path class="cls-3" d="M133,168.3c1.1.6,3.3,1.7,4.3,2.3"/>
    <path class="cls-8" d="M139.7,172.2c1.1.6,3.3,1.7,4.3,2.3"/>
    <path class="cls-3" d="M139.7,172.2c1.1.6,3.3,1.7,4.3,2.3"/>
    <path class="cls-8" d="M146.3,176.1c1.1.6,3.3,1.7,4.3,2.3"/>
    <path class="cls-3" d="M146.3,176.1c1.1.6,3.3,1.7,4.3,2.3"/>
    <path class="cls-8" d="M153,180c1.1.6,3.3,1.7,4.3,2.3"/>
    <path class="cls-3" d="M153,180c1.1.6,3.3,1.7,4.3,2.3"/>
    <path class="cls-8" d="M159.7,183.9c1.1.6,3.3,1.7,4.3,2.3"/>
    <path class="cls-3" d="M159.7,183.9c1.1.6,3.3,1.7,4.3,2.3"/>
    <path class="cls-8" d="M166.3,187.8c1.1.6,3.3,1.7,4.3,2.3"/>
    <path class="cls-3" d="M166.3,187.8c1.1.6,3.3,1.7,4.3,2.3"/>
    <path class="cls-8" d="M173,191.7c1.1.6,3.3,1.7,4.3,2.3"/>
    <path class="cls-3" d="M173,191.7c1.1.6,3.3,1.7,4.3,2.3"/>
    <path class="cls-8" d="M179.7,195.6c1.1.6,3.3,1.7,4.3,2.3"/>
    <path class="cls-3" d="M179.7,195.6c1.1.6,3.3,1.7,4.3,2.3"/>
    <path class="cls-1" d="M287.3,132.4l10.2,4.7-89.7,56.4c-7.9,5.2-15.3,8.9-15.7,7.8-.5-1.4,5.5-6.3,13.4-11.4l91.2-64.2-.6-.3M295.9,124.5l.7.4-93.2,64.1c-8.1,5.3-13.8,11-12.7,13.3,1,2,8.9-1.2,17-6.5l89.7-57.9-.6-.4M295.9,123.5l.7.3-95.2,64.5c-8.3,5.4-13.7,11.7-12,15.1,1.5,2.8,9.9,0,18.2-5.3l89.8-59-.9-.6M295.9,122.6l.7.4-96.7,64.5c-8.3,5.4-13.4,12.3-11.1,16.6,2,3.6,10.8,1.4,19-4l89.5-59.9-.8-.6M295.7,121.7l.9.5-98.2,64.5c-8.3,5.4-13,12.8-10.2,18,2.4,4.3,11.6,2.7,19.8-2.7l89.4-60.8-.6-.5"/>
    <path class="cls-7" d="M287.3,132.3l10.2,4.7-89.7,56.4c-7.9,5.2-15.3,8.9-15.7,7.8-.5-1.4,5.5-6.3,13.4-11.4l81.8-57.4Z"/>
    <path class="cls-4" d="M287.3,132.3l10.2,4.7-89.7,56.4c-7.9,5.2-15.3,8.9-15.7,7.8-.5-1.4,5.5-6.3,13.4-11.4l81.8-57.4Z"/>
  </g>
</svg>