<?xml version="1.0" standalone="no"?>
<!DOCTYPE svg PUBLIC "-//W3C//DTD SVG 20010904//EN"
 "http://www.w3.org/TR/2001/REC-SVG-20010904/DTD/svg10.dtd">
<svg version="1.0" xmlns="http://www.w3.org/2000/svg"
 width="144.000000pt" height="144.000000pt" viewBox="0 0 144.000000 144.000000"
 preserveAspectRatio="xMidYMid meet">
<metadata>
Created by potrace 1.11, written by Peter Selinger 2001-2013
</metadata>
<g transform="translate(0.000000,144.000000) scale(0.100000,-0.100000)"
fill="#000000" stroke="none">
<path d="M0 720 l0 -720 720 0 720 0 0 720 0 720 -720 0 -720 0 0 -720z m340
407 c6 -23 15 -51 20 -62 10 -20 27 -85 37 -140 3 -16 12 -39 19 -50 6 -11 15
-39 19 -62 10 -65 29 -52 49 32 18 77 21 81 44 66 24 -15 11 -424 -15 -491 -4
-8 -7 -18 -7 -22 -1 -3 -4 -10 -8 -14 -5 -4 -8 -20 -8 -35 0 -42 -10 -59 -35
-59 -19 0 -23 7 -28 41 -3 23 -9 45 -14 48 -5 3 -17 44 -27 91 -10 47 -22 90
-26 95 -5 6 -16 39 -25 75 -9 36 -20 70 -25 75 -4 6 -11 26 -15 45 -4 19 -12
46 -17 60 -5 14 -8 25 -6 26 2 0 -2 7 -8 15 -7 8 -15 30 -19 49 -4 19 -13 46
-20 60 -30 60 -48 174 -29 192 3 4 34 6 70 7 l63 0 11 -42z m408 -394 l-3
-438 -67 -3 -68 -3 0 291 c0 212 -3 296 -12 310 -10 15 -10 22 0 32 8 8 12 50
12 130 l0 118 70 0 70 0 -2 -437z m245 4 c5 -235 6 -434 3 -442 -4 -11 -23
-15 -76 -15 l-70 0 0 174 c0 96 -4 177 -9 180 -5 4 -10 118 -10 256 -1 191 1
254 11 265 10 11 31 14 78 12 l65 -2 8 -428z m180 414 c43 -19 87 -65 87 -93
0 -8 6 -20 13 -26 8 -9 12 -48 12 -120 0 -95 -3 -111 -22 -139 -13 -17 -23
-36 -23 -42 0 -6 -5 -11 -10 -11 -6 0 -23 -9 -38 -19 -15 -11 -48 -23 -74 -27
l-48 -6 0 62 c0 59 2 65 35 97 28 27 35 42 35 73 0 21 -4 42 -10 45 -5 3 -10
19 -10 35 0 19 -9 35 -25 48 -21 17 -25 28 -25 74 0 30 3 58 7 61 12 12 51 7
96 -12z m-934 -439 c7 -26 17 -57 23 -69 6 -11 8 -26 4 -31 -3 -6 -2 -13 3
-16 5 -4 15 -32 22 -64 6 -31 18 -66 25 -77 9 -13 14 -48 14 -103 l0 -83 -72
3 -73 3 -3 155 c-1 85 1 196 4 246 5 80 8 91 23 87 10 -3 22 -23 30 -51z"/>
</g>
</svg>
