<?xml version="1.0" encoding="UTF-8"?>
<svg xmlns="http://www.w3.org/2000/svg" version="1.1" viewBox="0 0 269.3 212.6">
  <defs>
    <style>
      .cls-1 {
        stroke-dasharray: 2.3 1.2 4.7 3.5;
      }

      .cls-1, .cls-2, .cls-3, .cls-4, .cls-5, .cls-6, .cls-7, .cls-8, .cls-9, .cls-10 {
        stroke-miterlimit: 10;
      }

      .cls-1, .cls-2, .cls-6, .cls-7, .cls-9 {
        stroke-linecap: round;
      }

      .cls-1, .cls-3, .cls-4, .cls-5, .cls-6, .cls-7, .cls-8, .cls-9, .cls-10 {
        stroke-width: .2px;
      }

      .cls-1, .cls-4, .cls-6, .cls-7, .cls-9, .cls-10 {
        stroke: #9b9b9b;
      }

      .cls-1, .cls-6, .cls-7, .cls-9 {
        fill: none;
      }

      .cls-11 {
        fill: #c20016;
      }

      .cls-2 {
        stroke: #c20016;
        stroke-width: .3px;
      }

      .cls-2, .cls-5, .cls-10 {
        fill: #9b9b9b;
      }

      .cls-3 {
        stroke: #fff;
      }

      .cls-3, .cls-12, .cls-4, .cls-8 {
        fill: #fff;
      }

      .cls-13 {
        fill: #20201e;
      }

      .cls-5, .cls-8 {
        stroke: #20201e;
      }

      .cls-7 {
        stroke-dasharray: 2.4 1.2 4.8 3.6;
      }

      .cls-9 {
        stroke-dasharray: 5 3 2 1 4 3;
      }
    </style>
  </defs>
  <!-- Generator: Adobe Illustrator 28.6.0, SVG Export Plug-In . SVG Version: 1.2.0 Build 709)  -->
  <g>
    <g id="Ebene_1">
      <g>
        <polygon class="cls-12" points="6 88.5 6 109.2 164.4 165 263.7 122.8 263.7 103.1 164.4 144.5 6 88.5"/>
        <g>
          <g>
            <path class="cls-5" d="M164.4,164.7l99.3-42.2h0l-99.3,42.2M5.9,108.9v-.2l158.5,55.9"/>
            <path class="cls-3" d="M263.8,103.1h0l-99.3,42.2L5.9,89.4h0l158.5,55.9,99.3-42.2Z"/>
            <path class="cls-8" d="M263.8,104.2h0l-99.3,42.2L5.9,90.6h0l158.5,55.9,99.3-42.2Z"/>
            <path class="cls-8" d="M263.8,105.3h0l-99.3,42.2L5.9,91.7h0l158.5,55.9,99.3-42.2Z"/>
            <path class="cls-8" d="M263.8,106.5h0l-99.3,42.2L5.9,92.8h0l158.5,55.9,99.3-42.2Z"/>
            <path class="cls-8" d="M263.8,107.6h0l-99.3,42.2L5.9,94h0l158.5,55.9,99.3-42.2Z"/>
            <path class="cls-8" d="M263.8,108.7h0l-99.3,42.2L5.9,95.1h0l158.5,55.9,99.3-42.2Z"/>
            <path class="cls-8" d="M263.8,109.9h0l-99.3,42.2L5.9,96.2h0l158.5,55.9,99.3-42.2Z"/>
            <path class="cls-8" d="M263.8,111h0l-99.3,42.2L5.9,97.4h0l158.5,55.9,99.3-42.2Z"/>
            <path class="cls-8" d="M263.8,112.1h0l-99.3,42.2L5.9,98.5h0l158.5,55.9,99.3-42.2Z"/>
            <path class="cls-8" d="M263.8,113.3h0l-99.3,42.2L5.9,99.6h0l158.5,55.9,99.3-42.2Z"/>
            <path class="cls-8" d="M263.8,114.4h0l-99.3,42.2L5.9,100.8h0l158.5,55.9,99.3-42.2Z"/>
            <path class="cls-8" d="M263.8,115.5h0l-99.3,42.2L5.9,101.9h0l158.5,55.9,99.3-42.2Z"/>
            <path class="cls-8" d="M263.8,116.7h0l-99.3,42.2L5.9,103h0l158.5,55.9,99.3-42.2Z"/>
            <path class="cls-8" d="M263.8,117.8h0l-99.3,42.2L5.9,104.2h0l158.5,55.9,99.3-42.2Z"/>
            <path class="cls-8" d="M263.8,118.9h0l-99.3,42.2L5.9,105.3h0l158.5,55.9,99.3-42.2Z"/>
            <path class="cls-8" d="M263.8,120.1h0l-99.3,42.2L5.9,106.4h0l158.5,55.9,99.3-42.2Z"/>
            <path class="cls-8" d="M263.8,121.2h0l-99.3,42.2L5.9,107.6h0l158.5,55.9,99.3-42.2Z"/>
            <path class="cls-13" d="M10.9,92.1c.2,0,.5.2.8.4.1,0,.3,0,.6.1h.2c0,0,.5.3.5.3,0,.5.2,1.1.5,1.7v.3s.1.2.1.2l.3,1.4v.3c.1.1.2.3.3.4v.5c0,.4.2.8.5,1.4,0,.3,0,.6.2.9v.5c0,0,.4.3.4.3l.4-1,.2-.5v-.4c0,0,.2,0,.2,0v-.3c.3,0,.5.2.6.4,0,.4,0,.7,0,1.1v.2c0,0,0,.2,0,.2v.3c0,0,0,.3,0,.3v.2s0,1,0,1c0,.2,0,.5,0,.8v.2c0,0,0,.3,0,.3,0,.4-.1.9-.1,1.6v.5c0,0-.2,1.2-.2,1.2h-.1s0,.2,0,.2v.2s-.2.2-.2.2v.3s-.2.3-.2.3v.3c-.1.1-.1.3,0,.4v.5c-.3,0-.6,0-.9-.1-.1-.3-.2-.7-.2-1.1v-.6c-.1,0-.3-.3-.3-.3v-.3s-.1-.2-.1-.2c0,0,0-.1,0-.2v-.5c0,0-.1-.4-.1-.4v-.3c-.1,0-.2-.3-.2-.3v-.4c-.1,0-.4-1.3-.4-1.3l-.2-.3c0-.5-.2-1.1-.5-1.8,0-.3-.1-.6-.3-1v-.2s-.2-.4-.2-.4c0-.4-.1-.8-.3-1.3v-.4c-.1-.1-.2-.3-.3-.4,0-.4-.2-1-.5-1.6v-.2s-.1-.2-.1-.2v-.5c0,0-.3-.6-.3-.6l-.2-.5v-1.7s.3-.1.3-.1ZM10.6,99.2h0s0,0,0,0l.5.5c0,.4.2.9.5,1.5v.2c.2.4.3.8.3,1.3v.2c.1.3.2.6.3,1v.4c0,0,.2.3.2.3v.4c.2.3.3.6.4,1v1.5s0,.6,0,.6v.2s0,.3,0,.3v.2c-.3,0-.5-.1-.8-.2l-.8-.3h-.2s-.2-.2-.2-.2h-.1s-.2-.1-.2-.1c0-.1,0-.3-.1-.4,0-.3,0-.7,0-1.2,0-.2,0-.5,0-.8v-.8s0-.2,0-.2v-.6s0-.7,0-.7v-.4c0,0,0-1,0-1,0-.4,0-.9,0-1.4v-.5s0-.4,0-.4v-.3c.1,0,.2,0,.2,0ZM17.7,94.4c.5.3,1.1.6,1.8.8h.1c0,.6,0,1.1,0,1.6v.2s0,.2,0,.2v.9s0,.2,0,.2v.2c0,.1,0,.2.1.4,0,.2,0,.5,0,.8,0,0,0,.2,0,.3,0,.1,0,.2,0,.4v.3c0,0,0,.5,0,.5v.3s0,.6,0,.6v.4c0,.2,0,.5,0,.8v.8s0,.2,0,.2v.3c0,.2,0,.5,0,.8,0,.2,0,.4,0,.6v.5c0,0,0,.4,0,.4v.4c.1.2.1.5,0,.9v.6c0,0,0,.2,0,.2,0,0,0,.1,0,.2v.2s0,.2,0,.2c0,0,0,.1,0,.2v.3s0,.8,0,.8c-.6,0-1.4-.3-2.2-.7-.2-.6-.2-1.4-.2-2.4h0c-.1-.6,0-1.1,0-1.7,0-.4-.1-.8,0-1.1,0-.3,0-.6,0-.9v-3.7c0-.3,0-.7,0-1.1v-3.6c0-.3,0-.6,0-1v-.2s.3-.2.3-.2Z"/>
            <path class="cls-13" d="M22.2,96.1l.9.3h.2c0,0,1.2.5,1.2.5h.3c.1.7.1,1.3,0,2,0,0,0,.1,0,.2,0,.1,0,.3,0,.6v.2c0,.3,0,.6,0,1v.5c0,.3,0,.6,0,1v.6c0,0,0,.5,0,.5v.5s0,1,0,1v.2s0,.2,0,.2v1s0,.2,0,.2c0,.2,0,.4,0,.6v.3c0,.5,0,1,0,1.5v.3c0,0,0,.5,0,.5v.2s0,.3,0,.3c.4.4.6,1,.6,1.7,0,.3,0,.8,0,1.4,0,0-.2,0-.2,0-1.3-.7-2.2-1.9-2.9-3.5,0-.2,0-.5-.2-.8,0-.4,0-.9,0-1.6v-.2c0,0,0-.1,0-.2v-2.2s0-.2,0-.2v-.2c0-.4-.1-.9,0-1.5,0-.5,0-1.2,0-1.9v-3.7c0-.3,0-.6,0-1v-.2ZM27.1,98.7c0-.3.1-.5.3-.7l1.3.5h.3c0,.1.2.2.2.2h.3c0,.1.2.2.2.2.2.7.2,1.4.2,2.3,0,.3,0,.6,0,1v.2c0,0,0,.2,0,.2v.2s0,.2,0,.2v.6c0,0,0,.3,0,.3v1.4s0,.3,0,.3v.2s0,.3,0,.3v1.4s0,.2,0,.2v.2s0,1.3,0,1.3v.3s0,.2,0,.2v.5s0,.4,0,.4v.6c0,.3,0,.6,0,1-.1.1-.2.3-.2.5-.6.8-1.4,1.3-2.6,1.4,0-.1-.1-.2-.2-.3,0-.3,0-.8,0-1.2v-.2s0-.1,0-.2v-.7c.3-.2.5-.6.6-1.1h.2s0-.4,0-.4c0-.4,0-1-.2-1.8v-5.1c0,0-.2-.5-.2-.5v-.8c0-.3,0-.7,0-1.2,0-.2,0-.5,0-.8v-1Z"/>
            <path class="cls-13" d="M33.4,100.3c.1,0,.3-.1.4-.3l.9.3h.2c0,0,.6.3.6.3l.2.2h.2c.2.1.5.3.9.5h.2s.5.2.5.2h.2c.3.1.6.3,1,.4h.3c0,.1.4.2.4.2.3.2.7.4,1.2.5l.4.2c0,.1,0,.3.1.4-.1.2-.1.6,0,1v.5c0,0,0,.3,0,.3l-.2.3c-.5,0-1.1-.3-1.9-.7-.2,0-.5-.2-.9-.3-.3,0-.6-.1-1-.3-.2-.2-.5-.3-.7-.4h-.3c0,.3,0,.8,0,1.4v.2s0,.2,0,.2c0,.2,0,.5,0,.9v.3s-.2.2-.2.2v.3s.4.3.4.3c.5,0,1.1.2,1.8.5h.2c0,0,.2.2.2.2l.5.2.2.3v1.5s0,.6,0,.6h0c0,.1-.3.3-.3.3-.3-.1-.6-.2-.9-.2h-.2c-.2-.2-.5-.3-.7-.4h-.2c0,0-.2-.2-.2-.2h-.2c0,0-.2-.3-.2-.3v1.4s0,1.4,0,1.4v.5c0,0,0,.2,0,.2v.6c-.1,0,1.3.5,1.3.5h.2c0,0,.2.2.2.2h.3c0,.1.8.4.8.4h.2c0,0,1,.4,1,.4h.4c.2.2.4.4.7.6v.2c0,0,0,1.5,0,1.5v.2s0,.2,0,.2v.4s0,.2,0,.2c0,0,0,0-.1,0-.3-.2-.7-.4-1.2-.5h-.2c0,0-.2-.2-.2-.2l-.5-.2-.2-.2-2.4-.9-.7-.3-.8-.4h-.3c0-.1-.3,0-.3,0l-.4-.2c0-.4,0-.8,0-1.3v-10.4c0-.3,0-.8,0-1.4v-1.1c0-.4,0-1,0-1.7Z"/>
            <path class="cls-13" d="M45.6,104.5c.4,0,.8.3,1.4.6.2.9.3,1.9.2,3.1v.3c0,.2,0,.5,0,.8v.2c0,.3,0,.7,0,1.1v.2s0,.2,0,.2v.4c0,0,0,.5,0,.5l.2.6c0,.3,0,.7,0,1.3v.2s0,.2,0,.2v.6s0,.3,0,.3v.2s0,.5,0,.5v.5c0,0,0,.5,0,.5v.5s0,.5,0,.5v.5c.5.4,1,.7,1.6.7.3.2.6.4,1,.4.5.3,1.1.6,1.8.7l.3.3c.1.6.1,1.3,0,2.2v.2c-.2,0-.4,0-.7,0-.5-.3-1-.5-1.7-.7h-.2c0,0-.9-.4-.9-.4h-.2c0,0-.4-.2-.4-.2h-.4c0-.1-.2-.2-.2-.2h-.3c0-.1-.4-.2-.4-.2h-.2c0,0-.9-.4-.9-.4h-.3c0-.1-.3-.3-.3-.3h-.3c0-.1-.3-.3-.3-.3l-.2-.2v-3.8c0-.3,0-.8,0-1.3,0-.3,0-.8,0-1.3v-.5c0,0,0-8.5,0-8.5v-.3c.1,0,.6.1.6.1l.6.2c0,0,.1,0,.1,0Z"/>
            <path class="cls-13" d="M57.2,108.5c.4,0,.9.3,1.4.6.2.9.3,1.9.2,3.1v.3c0,.2,0,.5,0,.8v.2c0,.3,0,.7,0,1.1v.2s0,.2,0,.2v.4c0,0,0,.5,0,.5l.2.6c0,.3,0,.7,0,1.3v.2s0,.2,0,.2v.6s0,.3,0,.3v.2s0,.5,0,.5v.5c0,0,0,.5,0,.5v.5s0,.5,0,.5v.5c.5.4,1,.7,1.6.7.3.2.6.4,1,.5.5.3,1.2.6,1.9.7l.3.3c.1.6.1,1.3,0,2.2v.2c-.2,0-.4,0-.7,0-.5-.3-1.1-.5-1.7-.7h-.2c0,0-.9-.4-.9-.4h-.2c0,0-.4-.2-.4-.2h-.4c0-.1-.2-.2-.2-.2h-.3c0-.1-.4-.2-.4-.2h-.2c0,0-1-.4-1-.4h-.3c0-.1-.3-.3-.3-.3h-.3c0-.1-.3-.3-.3-.3l-.2-.2v-3.9c0-.3,0-.8,0-1.3,0-.4,0-.8,0-1.3v-.5c0,0,0-8.6,0-8.6v-.3c.1,0,.7.1.7.1l.6.2c0,0,.1,0,.1,0Z"/>
            <path class="cls-13" d="M67.1,112.2c.1,0,.3-.2.5-.3l1,.3h.2c0,0,.6.3.6.3l.2.2h.2c.3.1.6.3.9.5h.2s.5.2.5.2h.2c.3.1.7.3,1.1.5h.3c0,.1.4.2.4.2.3.2.8.4,1.3.5l.5.2c0,.1,0,.3.2.4-.2.3-.2.6,0,1v.5c0,0,0,.4,0,.4l-.2.3c-.5,0-1.2-.3-2-.7-.2,0-.5-.2-.9-.3-.3,0-.7-.1-1.1-.3-.2-.2-.5-.3-.8-.4h-.3c0,.3,0,.8,0,1.5v.2s0,.2,0,.2c0,.2,0,.5,0,.9v.3s-.2.2-.2.2v.3s.4.3.4.3c.5,0,1.2.2,1.8.5h.2c0,0,.2.2.2.2l.5.2.2.3v1.6s0,.6,0,.6h0c0,.1-.3.3-.3.3-.3-.2-.6-.2-.9-.3l-.2-.2c-.2,0-.5-.1-.8-.3h-.2c0,0-.2-.2-.2-.2h-.2c0,0-.2-.3-.2-.3v1.4s0,1.4,0,1.4v.5c0,0,0,.2,0,.2l-.2.6,1.5.5h.2c0,0,.2.2.2.2h.3c0,.1.8.4.8.4h.2c0,0,1,.4,1,.4h.4c.2.2.5.4.7.6v.2c0,0,0,1.6,0,1.6v.2s0,.2,0,.2v.4s0,.2,0,.2c0,0-.1,0-.2.1-.3-.2-.8-.4-1.2-.5h-.2c0,0-.2-.2-.2-.2l-.5-.2-.2-.2-2.5-.9-.8-.3-.8-.5h-.3c0-.1-.3,0-.3,0l-.5-.2c0-.4,0-.8,0-1.3v-10.7c0-.3,0-.8,0-1.4v-1.1c0-.4,0-1,0-1.8Z"/>
            <path class="cls-13" d="M79.2,116.2c.4.2.9.3,1.4.4.2.1.5.3.8.5,0,.3,0,.8,0,1.3h0c0,.1,0,.5,0,.5v.2s0,.3,0,.3v.3s0,.2,0,.2v.3c0,0,0,.4,0,.4v.6s0,.4,0,.4v.3s0,.6,0,.6c0,.4,0,.8,0,1.3v.6s0,.3,0,.3c0,.6-.1,1.4,0,2.5v.6c0,.5,0,1.1,0,1.7v.6c0,0,.2,1.8.2,1.8v1.6s-.2.5-.2.5l-1.4-.5h-.3c0-.1-.2-.2-.2-.2h-.3c0-.1-.3-.2-.3-.2v-3.8s-.1-.3-.1-.3v-.4c0-.3,0-.7,0-1.1v-.4c0-.4,0-.8,0-1.3v-.3c0,0,0-.2,0-.2v-.4c0-.5-.1-1.2,0-2v-.6c0-.4,0-1,0-1.8v-.9s0-.3,0-.3v-1.1c0-.4,0-1-.2-1.8v-.2c.2,0,.5,0,.7,0ZM82.8,118.4c0-.6.3-.8.9-.6,2.2,1,3.4,2.6,3.4,4.9.5,2.1,0,3.5-1.4,4.1v.3c.3.2.6.5,1,1h.2c0,.1.2.8.2.8,0,.2,0,.5.2.7v1.6s0,.6,0,.6v.2s0,.4,0,.4v.3s0,.5,0,.5v1.6s0,.2,0,.2v.3s0,.2,0,.2v.2c-.4,0-.9-.2-1.5-.5h-.3s-.2-.1-.2-.1h-.2c0-.1-.2-.1-.2-.1h-.4c-.1-.7-.1-1.4,0-2.2v-3.1c0-.3,0-.7-.1-1.1v-.2c-.3-.4-.6-.7-1-.8l-.2-.5c0-.4,0-1,0-1.6v-.2c.2-.3.5-.5,1-.4.7-2,.3-3.6-1.1-4.8.2-.5,0-1-.2-1.6Z"/>
            <path class="cls-13" d="M90.8,122.4c0-.6,0-1.3.1-2.1l1.4.5h.3c0,.1.2.2.2.2h.3c0,.1.2.4.2.4.2.8.2,1.6,0,2.4.1.5.2,1.2.2,1.9h0c0,.1,0,.4,0,.4v1.4s0,.4,0,.4v.3s0,1.4,0,1.4v.3s0,.2,0,.2v.2c0,0,0,.6,0,.6v.5s0,.6,0,.6v1.4s0,.3,0,.3v1.6s0,.2,0,.2v.6s0,.6,0,.6v.6s0,.5,0,.5c-.7,0-1.7-.4-2.8-.8,0-.8-.1-1.8-.1-3.1v-3.1s0-.3,0-.3v-.5c0,0,0-.9,0-.9,0-.5-.1-1,0-1.6v-5.3ZM95.6,121.8c2.6,1.3,3.8,3.5,3.6,6.5.2,2.9-1.1,3.9-3.8,3,0-.5-.1-1.1,0-1.8v-.8c.6,0,1-.3,1.1-.9,0-.4,0-.9,0-1.5v-.9c-.2-.5-.6-.8-1-1,0-.3,0-.7,0-1v-1.2c0,0,0-.2,0-.2l.3-.2Z"/>
            <path class="cls-13" d="M102.4,124.3c.4.2.9.3,1.4.4.2.1.5.3.8.5,0,.4,0,.8,0,1.3h0c0,.1,0,.5,0,.5v.2s0,.3,0,.3v.3s0,.2,0,.2v.3c0,0,0,.4,0,.4v.6s0,.4,0,.4v.3s0,.6,0,.6c0,.4,0,.8,0,1.3v.7s0,.3,0,.3c0,.6-.1,1.4,0,2.5v.6c0,.5,0,1.1,0,1.8v.6c0,0,.2,1.8.2,1.8v1.6s-.2.5-.2.5l-1.5-.5h-.3c0-.1-.2-.2-.2-.2h-.3c0-.1-.3-.2-.3-.2v-3.8s-.1-.3-.1-.3v-.4c0-.3,0-.7,0-1.1v-.4c0-.4,0-.8,0-1.3v-.3c0,0,0-.2,0-.2v-.4c0-.6-.1-1.2-.1-2.1v-.6c0-.4,0-1,0-1.8v-.9s0-.3,0-.3v-1.1c0-.4,0-1.1-.2-1.8v-.2c.3,0,.5,0,.7,0ZM106.1,126.6c0-.6.3-.8,1-.6,2.3,1,3.5,2.6,3.5,5,.5,2.1,0,3.5-1.4,4.1v.3c.3.2.7.6,1,1h.2c0,.1.3.8.3.8,0,.2,0,.5.2.7v1.6s0,.7,0,.7v.2s0,.4,0,.4v.3s0,.5,0,.5v1.6s0,.2,0,.2v.3s0,.2,0,.2v.2c-.5,0-.9-.2-1.5-.5h-.3s-.2-.1-.2-.1h-.2c0-.1-.2-.1-.2-.1l-.4-.2c-.1-.6-.1-1.3,0-2.1v-3.2c0-.3,0-.7-.1-1.1v-.2c-.3-.4-.6-.7-1.1-.9l-.2-.5c0-.4,0-1,0-1.7v-.2c.2-.3.5-.5,1-.4.7-2,.4-3.7-1.1-4.9.2-.5.1-1-.2-1.6Z"/>
            <path class="cls-13" d="M116.4,129.3c.5,0,1.1.3,1.7.7l.2,1.4c0,.1,0,.4,0,.6v.2c0,0,0,.2,0,.2v.2s0,.4,0,.4v1.4s0,.2,0,.2v.8s0,.4,0,.4v1.1s0,1.5,0,1.5v.3s0,.6,0,.6v.2s0,.2,0,.2v.2s0,1,0,1v.2s0,.2,0,.2v1s0,.2,0,.2v1.4s0,.3,0,.3v1.6s0,.2,0,.2v.6c-.4-.2-1-.3-1.6-.3-.4-.3-.8-.5-1.3-.6v-.5c0,0-.1-4.6-.1-4.6v-.3c0,0,0-.4,0-.4v-.5c0,0,0-.4,0-.4v-.5c-.1-.3,0-.6,0-1v-.2c0,0,0-2.4,0-2.4v-.3s0-1.4,0-1.4c0-.7,0-1.5,0-2.5v-.4c0,0,0-.2,0-.2v-.5c0,0,0-.8,0-.8h.3c.3,0,.5,0,.8,0h.2Z"/>
            <path class="cls-13" d="M131.5,151.6c0,0-.1,0-.2.1-.5-.1-1-.4-1.5-1-.1-.6-.4-1.3-.8-2.2v-.4c0,0-.2-.2-.2-.2-.1-.4-.3-.9-.6-1.4v-.3c0,0-.2-.3-.2-.3,0-.4-.3-.8-.6-1.3v-.2s-.2-.4-.2-.4l-.2-.3c0-.4-.3-.8-.6-1.3,0-.2,0-.4-.2-.5,0,0,0-.1,0-.2-.1-.5-.3-1-.7-1.5v-.2s-.2-.5-.2-.5l-.3-.5-.2-.5c0-.4-.3-.9-.7-1.5v-.2c-.2-.3-.3-.6-.5-1l-.2-.2v-.2c-.2-.4-.3-.8-.7-1.3l-.2-.9c0-.3,0-.6,0-.9v-.6c.4,0,.9.2,1.5.5h.6c0,0,.3.2.3.2l.2.2c.1.5.4,1.1.8,1.9,0,0,0,.1,0,.2,0,0,0,.2,0,.3,0,.3.2.6.3.9l.2.3c0,0,0,.2,0,.3l.2.5c0,.3.3.7.5,1.1v.2s.2.3.2.3c0,.2.1.4.2.6l.2.5.2.5.3.6.2.6.2.4.2.6.2.5.2.6c.2.5.4,1,.8,1.7,0,.4.2.8.5,1.2,0,.2,0,.4.2.7l.3.6c0,.2,0,.4.2.6v2s0,.2,0,.2v.2c0,0,0,1,0,1ZM124.5,149.4c-.6-.1-1.2-.5-1.7-1v-1s0-.2,0-.2v-1.4s0-.3,0-.3v-.2c0-.3,0-.6,0-.9,0-.3,0-.6,0-1.1,0-.3,0-.7,0-1.1,0-.3,0-.6,0-1,0-.1,0-.3,0-.5v-.3c0-.4,0-.7,0-1.2,0-.5,0-1,0-1.5v-.2s.3.2.3.2c0,.2.2.5.4.8.1.8.5,1.7,1,2.5v.4c0,0,.4.7.4.7l.4,1.1v.2c0,0,.3.3.3.3v.3s.3.5.3.5v.4c0,0,.2.4.2.4,0,.1,0,.3.2.5-.3.9-.3,1.9,0,3.3h0c0,.1,0,.8,0,.8l-1.6-.4ZM131.5,144.2l-.7-.5v-.7s-.3-.8-.3-.8l-.3-.9-.2-.2v-.3c0,0-.2-.2-.2-.2,0-.3-.2-.6-.3-.9l-.2-.3c0-.1,0-.2-.2-.3v-.4c0,0-.2-.4-.2-.4l-.3-.3v-.4c0,0-.3-.3-.3-.3,0-.2,0-.4,0-.6v-.6c0-.4,0-.9,0-1.4,0-.2,0-.5,0-.8h.5c.5.3,1.1.5,1.9.7h.3c0,.2,0,.2.2.3.2.7.2,1.6,0,2.5v.3c0,0,0,1.4,0,1.4,0,.2,0,.5,0,.8,0,.2,0,.5,0,.7v.2s0,.7,0,.7v.3s0,1.1,0,1.1v1.1c0,0,0,.4,0,.4Z"/>
            <path class="cls-13" d="M143.4,138.7l.4.2c.3,1,.4,2.1.2,3.1l-1.7-.6h-.3c0,0-.2-.2-.2-.2h-.2c0-.1-.3-.2-.3-.2l-.3-.2v1s0,.2,0,.2v1.4s0,.3,0,.3v1.1s0,.4,0,.4v.9s0,.3,0,.3v.4c0,0,0,.5,0,.5v.4c0,0,0,.5,0,.5v.3c0,.4,0,.8,0,1.3v.5s0,.5,0,.5v.6s0,.7,0,.7c0,.3,0,.8,0,1.3v.3s0,.2,0,.2v.6s0,.6,0,.6c-.6,0-1.3-.1-2.1-.6-.2,0-.6,0-.9-.2l-.3-1.1c.1-.3.1-.7,0-1.2v-1.4c0,0,0-.1,0-.2,0-.5,0-1.3-.1-2.2,0-.3,0-.6,0-1.1v-.3c0-.4,0-.8,0-1.3v-4.1s0-.5,0-.5v-1.1c0,0-.3-.2-.3-.2-.3,0-.6-.2-.9-.2-.3-.2-.7-.3-1.1-.5h-.3c0,0-.2-.2-.2-.2l-.3-.2c-.1-.4-.2-.9-.2-1.5v-.9s0-.4,0-.4h0c.5,0,1,.1,1.7.4h.3c0,0,.9.4.9.4l1.5.5h.2c.4.3,1,.4,1.6.6h.3c0,0,.6.3.6.3h.3c0,0,.4.2.4.2l.7.2h.3Z"/>
            <path class="cls-13" d="M149.1,140.7c0,0,.2,0,.3,0,.3.1.7.3,1.1.6,0,.4,0,.8,0,1.4,0,.3,0,.6,0,.9h0c0,.1,0,.4,0,.4,0,.2-.1.4-.2.6-.2.1-.3.3-.5.5,0,.2,0,.6,0,1,.8,1.1,1.7,2,2.9,2.9.3.4.7.9,1.2,1.3l.4.5c.3.3.7.8,1.1,1.3h.2c0,.1.8,2,.8,2l.2.4c0,.3.1.6.3.9.2,2.1-.5,3.6-2.3,4.4-.6.1-1.2.1-2-.1-.1-.6-.2-1.3-.1-2.2v-1.3c.7,0,1.1-.6,1.2-1.6-.2-.6-.6-1.2-1.2-1.9l-.6-.4c-.2-.3-.5-.6-.9-1l-.3-.2v-.2c0,0-.4-.2-.4-.2v-.2c-2.8-2.1-4-4.7-3.7-7.7.2-.1.4-.3.5-.6.2-.2.3-.4.5-.7.2,0,.3-.1.4-.3.4,0,.8-.1,1.2-.4ZM146.1,153c-.1-.9.7-1.1,2.3-.5l.7.3c.2,1.4.7,2.5,1.7,3.4.2.9.2,1.9,0,3.1l-.6-.4h-.3c-1.9-1.5-3.2-3.5-3.8-5.9ZM151.5,141.6c2.1.9,3.6,2.6,4.4,5,.2.5.2,1,0,1.4-.4-.1-.9-.3-1.5-.4h-.3c0-.1-.2-.1-.3-.1h-.4c0-.1-.4-.2-.4-.2h-.3c0,0-.3-.4-.3-.4,0-.3-.1-.6-.1-1-.1-.3-.4-.6-.7-.9l-.4-.6v-2c0-.2,0-.5-.1-.7v-.2Z"/>
            <path class="cls-13" d="M157.4,159c.4-.9,1.2-1.3,2.4-1.1h.2c0,0-.2,0-.2,0h.2c1.8,1.9,2.2,3.3,1,4.2-1.8.3-3-.7-3.6-3.1Z"/>
            <line class="cls-9" x1="16.4" y1="91.7" x2="16.2" y2="112.2"/>
            <g>
              <line class="cls-6" x1="30.2" y1="96.6" x2="30.2" y2="99.1"/>
              <line class="cls-7" x1="30.2" y1="102.7" x2="30.1" y2="112.8"/>
              <line class="cls-6" x1="30.1" y1="114.6" x2="30.1" y2="117.1"/>
            </g>
            <g>
              <line class="cls-6" x1="44" y1="101.5" x2="44" y2="104"/>
              <line class="cls-7" x1="44" y1="107.6" x2="43.9" y2="117.7"/>
              <line class="cls-6" x1="43.9" y1="119.5" x2="43.9" y2="122"/>
            </g>
            <g>
              <line class="cls-6" x1="57.9" y1="106.4" x2="57.8" y2="108.9"/>
              <line class="cls-7" x1="57.8" y1="112.5" x2="57.8" y2="122.6"/>
              <line class="cls-6" x1="57.8" y1="124.4" x2="57.7" y2="126.9"/>
            </g>
            <g>
              <line class="cls-6" x1="71.7" y1="111.3" x2="71.7" y2="113.8"/>
              <line class="cls-7" x1="71.7" y1="117.4" x2="71.6" y2="127.5"/>
              <line class="cls-6" x1="71.6" y1="129.3" x2="71.6" y2="131.8"/>
            </g>
            <g>
              <line class="cls-6" x1="85.5" y1="116.2" x2="85.5" y2="118.7"/>
              <line class="cls-7" x1="85.5" y1="122.3" x2="85.4" y2="132.4"/>
              <line class="cls-6" x1="85.4" y1="134.2" x2="85.4" y2="136.7"/>
            </g>
            <g>
              <line class="cls-6" x1="99.4" y1="121.1" x2="99.3" y2="123.6"/>
              <line class="cls-7" x1="99.3" y1="127.2" x2="99.3" y2="137.3"/>
              <line class="cls-6" x1="99.3" y1="139.1" x2="99.2" y2="141.6"/>
            </g>
            <g>
              <line class="cls-6" x1="113.2" y1="126" x2="113.2" y2="128.5"/>
              <line class="cls-7" x1="113.2" y1="132.1" x2="113.1" y2="142.2"/>
              <line class="cls-6" x1="113.1" y1="144" x2="113.1" y2="146.5"/>
            </g>
            <g>
              <line class="cls-6" x1="127" y1="131.2" x2="127" y2="133.7"/>
              <line class="cls-1" x1="127" y1="137.2" x2="126.9" y2="147.1"/>
              <line class="cls-6" x1="126.9" y1="148.9" x2="126.9" y2="151.4"/>
            </g>
            <g>
              <line class="cls-6" x1="140.9" y1="136.1" x2="140.8" y2="138.6"/>
              <line class="cls-1" x1="140.8" y1="142.1" x2="140.8" y2="152"/>
              <line class="cls-6" x1="140.8" y1="153.8" x2="140.7" y2="156.3"/>
            </g>
            <g>
              <line class="cls-6" x1="154.7" y1="140.7" x2="154.7" y2="143.2"/>
              <line class="cls-7" x1="154.7" y1="146.8" x2="154.6" y2="156.9"/>
              <line class="cls-6" x1="154.6" y1="158.7" x2="154.6" y2="161.2"/>
            </g>
            <polygon class="cls-11" points="263.8 103.1 164.4 144.3 255.8 101.1 263.8 103.1"/>
            <polygon class="cls-11" points="263.8 100.6 164.4 141.8 255.8 98.7 263.8 100.6"/>
            <path class="cls-10" d="M5.9,109.2v-.2l158.5,55.9,99.3-42.2h0l-99.3,42.2"/>
            <path class="cls-8" d="M263.5,103.1h0l-99.1,42.2L5.7,89.4h0l158.8,55.9,99.1-42.2Z"/>
            <path class="cls-2" d="M164.4,144.5,6.1,88.7v-.2l158.4,55.9"/>
          </g>
          <polygon class="cls-4" points="164.4 144.2 5.9 88.2 108.2 47.6 261.6 98.9 164.4 144.2"/>
        </g>
      </g>
    </g>
  </g>
</svg>