<?xml version="1.0" encoding="UTF-8"?>
<svg id="Ebene_1" data-name="Ebene 1" xmlns="http://www.w3.org/2000/svg" xmlns:xlink="http://www.w3.org/1999/xlink" version="1.1" viewBox="0 0 340.2 240.9">
  <defs>
    <style>
      .cls-1, .cls-2 {
        stroke-width: .2px;
      }

      .cls-1, .cls-2, .cls-3, .cls-4, .cls-5 {
        fill: none;
      }

      .cls-1, .cls-2, .cls-4, .cls-5 {
        stroke-miterlimit: 10;
      }

      .cls-1, .cls-4 {
        stroke: #20201e;
      }

      .cls-2, .cls-5 {
        stroke: #000;
      }

      .cls-6 {
        clip-path: url(#clippath);
      }

      .cls-3, .cls-7, .cls-8 {
        stroke-width: 0px;
      }

      .cls-7 {
        fill: #fbfbfb;
      }

      .cls-4, .cls-5 {
        stroke-width: .2px;
      }

      .cls-8 {
        fill: #ededeb;
      }

      .cls-9 {
        clip-path: url(#clippath-1);
      }

      .cls-10 {
        clip-path: url(#clippath-3);
      }

      .cls-11 {
        clip-path: url(#clippath-2);
      }
    </style>
    <clipPath id="clippath">
      <rect class="cls-3" x="22.6" y="36.1" width="295.8" height="167.8"/>
    </clipPath>
    <clipPath id="clippath-1">
      <rect class="cls-3" x="22.6" y="36.1" width="295.8" height="167.8"/>
    </clipPath>
    <clipPath id="clippath-2">
      <rect class="cls-3" x="22.6" y="36.1" width="295.8" height="167.8"/>
    </clipPath>
    <clipPath id="clippath-3">
      <rect class="cls-3" x="22.6" y="36.1" width="295.8" height="167.8"/>
    </clipPath>
  </defs>
  <polygon class="cls-8" points="196.3 174.2 317.7 119.3 308.5 115.9 196.3 174.2"/>
  <polygon class="cls-2" points="308.5 115.9 317.7 119.3 196.3 174.2 308.5 115.9"/>
  <polygon class="cls-8" points="196.3 174.4 196.3 203.7 317.7 148.1 286.3 134.7 196.3 174.4"/>
  <g class="cls-6">
    <polygon class="cls-2" points="196.3 203.7 317.7 148.1 286.3 134.7 196.3 174.4 196.3 203.7"/>
  </g>
  <polygon class="cls-8" points="196.3 174.7 196.3 203.5 317.8 148.4 317.8 119.2 196.3 174.7"/>
  <polyline class="cls-2" points="317.8 119.2 317.8 148.4 196.3 203.5 196.3 174.7"/>
  <polygon class="cls-8" points="22.9 99.4 196.3 174.4 318.1 110.8 142.6 36.2 22.9 99.4"/>
  <g class="cls-9">
    <polygon class="cls-4" points="22.9 99.4 142.6 36.2 318.1 110.8 196.3 174.4 22.9 99.4"/>
  </g>
  <polygon class="cls-8" points="22.8 127.8 196.3 203.7 196.3 174.4 22.8 99.4 22.8 127.8"/>
  <g class="cls-11">
    <polygon class="cls-5" points="22.8 99.4 196.3 174.4 196.3 203.7 22.8 127.8 22.8 99.4"/>
  </g>
  <polygon class="cls-8" points="22.9 99.4 196.3 174.4 318.1 110.8 142.6 36.2 22.9 99.4"/>
  <g class="cls-10">
    <polygon class="cls-5" points="22.9 99.4 142.6 36.2 318.1 110.8 196.3 174.4 22.9 99.4"/>
  </g>
  <polygon class="cls-7" points="206.6 168.8 33.3 93.9 34.3 93.3 207.7 168.1 206.6 168.8"/>
  <polygon class="cls-4" points="206.6 168.8 33.3 93.9 34.3 93.3 207.7 168.1 206.6 168.8"/>
  <line class="cls-1" x1="317.6" y1="120.1" x2="196.1" y2="175.5"/>
  <line class="cls-1" x1="317.6" y1="121.1" x2="196.1" y2="176.5"/>
  <line class="cls-1" x1="317.6" y1="122.1" x2="196.1" y2="177.5"/>
  <line class="cls-1" x1="317.6" y1="123.2" x2="196.1" y2="178.6"/>
  <line class="cls-1" x1="317.6" y1="124.2" x2="196.1" y2="179.6"/>
  <line class="cls-1" x1="317.6" y1="125.2" x2="196.1" y2="180.6"/>
  <line class="cls-1" x1="317.6" y1="126.3" x2="196.1" y2="181.6"/>
  <line class="cls-1" x1="317.6" y1="127.3" x2="196.1" y2="182.7"/>
  <line class="cls-1" x1="317.6" y1="128.3" x2="196.1" y2="183.7"/>
  <line class="cls-1" x1="317.6" y1="129.3" x2="196.1" y2="184.7"/>
  <line class="cls-1" x1="317.6" y1="130.4" x2="196.1" y2="185.7"/>
  <line class="cls-1" x1="317.6" y1="131.4" x2="196.1" y2="186.8"/>
  <line class="cls-1" x1="317.6" y1="132.4" x2="196.1" y2="187.8"/>
  <line class="cls-1" x1="317.6" y1="133.4" x2="196.1" y2="188.8"/>
  <line class="cls-1" x1="317.6" y1="134.5" x2="196.1" y2="189.9"/>
  <line class="cls-1" x1="317.6" y1="135.5" x2="196.1" y2="190.9"/>
  <line class="cls-1" x1="317.6" y1="136.5" x2="196.1" y2="191.9"/>
  <line class="cls-1" x1="317.6" y1="137.6" x2="196.1" y2="192.9"/>
  <line class="cls-1" x1="317.6" y1="138.6" x2="196.1" y2="194"/>
  <line class="cls-1" x1="317.6" y1="139.6" x2="196.1" y2="195"/>
  <line class="cls-1" x1="317.6" y1="140.6" x2="196.1" y2="196"/>
  <line class="cls-1" x1="317.6" y1="141.7" x2="196.1" y2="197"/>
  <line class="cls-1" x1="317.6" y1="142.7" x2="196.1" y2="198.1"/>
  <line class="cls-1" x1="317.6" y1="143.7" x2="196.1" y2="199.1"/>
  <line class="cls-1" x1="317.6" y1="144.7" x2="196.1" y2="200.1"/>
  <line class="cls-1" x1="317.6" y1="145.8" x2="196.1" y2="201.2"/>
  <line class="cls-1" x1="317.6" y1="146.8" x2="196.1" y2="202.2"/>
  <line class="cls-1" x1="317.6" y1="147.8" x2="196.1" y2="203.2"/>
</svg>