<?xml version="1.0" encoding="UTF-8"?>
<svg xmlns="http://www.w3.org/2000/svg" xmlns:xlink="http://www.w3.org/1999/xlink" version="1.1" viewBox="0 0 340.2 240.9">
  <defs>
    <style>
      .cls-1, .cls-2, .cls-3, .cls-4, .cls-5 {
        fill: none;
      }

      .cls-1, .cls-2, .cls-4, .cls-5 {
        stroke: #20201e;
      }

      .cls-1, .cls-2, .cls-5 {
        stroke-width: .2px;
      }

      .cls-1, .cls-4 {
        stroke-miterlimit: 10;
      }

      .cls-2, .cls-5 {
        stroke-linecap: round;
        stroke-linejoin: round;
      }

      .cls-6 {
        clip-path: url(#clippath);
      }

      .cls-3, .cls-7, .cls-8, .cls-9 {
        stroke-width: 0px;
      }

      .cls-7 {
        fill: #20201e;
      }

      .cls-4 {
        stroke-width: .2px;
      }

      .cls-10 {
        mix-blend-mode: multiply;
      }

      .cls-11 {
        clip-path: url(#clippath-9);
      }

      .cls-5 {
        stroke-dasharray: 0 0 0 .4;
      }

      .cls-12 {
        clip-path: url(#clippath-33);
      }

      .cls-13 {
        clip-path: url(#clippath-10);
      }

      .cls-8 {
        fill: #d4d5d1;
      }

      .cls-9 {
        fill: #ededea;
      }

      .cls-14 {
        isolation: isolate;
      }
    </style>
    <clipPath id="clippath">
      <rect class="cls-3" x="26.9" y="92" width="295.4" height="55.3"/>
    </clipPath>
    <clipPath id="clippath-9">
      <rect class="cls-3" x="26.9" y="92" width="295.4" height="55.3"/>
    </clipPath>
    <clipPath id="clippath-10">
      <rect class="cls-3" x="18.7" y="103.8" width="191.7" height="41.4"/>
    </clipPath>
    <clipPath id="clippath-33">
      <rect class="cls-3" x="26.9" y="92" width="295.4" height="55.3"/>
    </clipPath>
  </defs>
  <g class="cls-14">
    <g id="Ebene_1" data-name="Ebene 1">
      <g class="cls-6">
        <polygon class="cls-9" points="27.8 112 201.3 134.8 321.3 115.3 147.5 92.2 27.8 112"/>
        <polygon class="cls-4" points="27.8 112 147.5 92.2 321.3 115.3 201.3 134.8 27.8 112"/>
        <g class="cls-11">
          <g class="cls-10">
            <g class="cls-13">
              <polygon class="cls-8" points="27.8 112 27.8 119.5 201.3 144.1 201.3 140 201.3 134.8 27.8 112"/>
              <polygon class="cls-4" points="27.8 112 27.8 119.5 201.3 144.1 201.3 140 201.3 134.8 27.8 112"/>
            </g>
          </g>
        </g>
        <g class="cls-12">
          <path class="cls-7" d="M41.4,121.4c-.9,1.6-1.9,2.4-2.8,2.2-1.6-.4-2.2-3.9-1.4-7.9.8-3.9,2.8-6.8,4.4-6.3.6.2,1.3,1.9,1.3,1.9h1.1c-.4-1.7-1.2-2.9-2.3-3.2-2.1-.6-4.6,2.6-5.5,7.2-.9,4.6,0,8.9,2.2,9.3,2.9.6,4.2-3.1,4.2-3.1h-1.2Z"/>
          <path class="cls-7" d="M40.1,121.3c-.9,1.6-1.9,2.4-2.8,2.2-1.6-.4-2.2-3.9-1.4-7.9.8-3.9,2.8-6.8,4.4-6.3.6.2,1.3,1.9,1.3,1.9h1.1c-.4-1.7-1.2-2.9-2.3-3.2-2.1-.6-4.6,2.6-5.5,7.2-.9,4.6,0,8.9,2.2,9.3,2.9.6,4.2-3.1,4.2-3.1h-1.2Z"/>
          <path class="cls-7" d="M187.5,141.7c-.9,1.8-1.9,2.7-2.8,2.5-1.6-.5-2.2-4.4-1.4-8.8.8-4.4,2.9-7.6,4.4-7.2.6.2,1.2,2.2,1.2,2.2h1.1c-.4-1.9-1.2-3.2-2.3-3.6-2.1-.6-4.6,3-5.5,8.1-.9,5.1,0,10,2.2,10.4,2.9.6,4.2-3.5,4.2-3.5h-1.2Z"/>
          <path class="cls-7" d="M186.2,141.7c-.9,1.8-1.9,2.7-2.8,2.5-1.6-.5-2.2-4.4-1.4-8.8.8-4.4,2.9-7.6,4.4-7.2.6.2,1.2,2.2,1.2,2.2h1.1c-.4-1.9-1.2-3.2-2.3-3.6-2.1-.6-4.6,3-5.5,8.1-.9,5.1,0,10,2.2,10.4,2.9.6,4.2-3.5,4.2-3.5h-1.2Z"/>
          <path class="cls-7" d="M52.8,122.9c-.9,1.6-1.9,2.4-2.8,2.2-1.6-.4-2.2-3.9-1.4-7.9.8-3.9,2.8-6.8,4.4-6.3.6.2,1.3,1.9,1.3,1.9h1.1c-.4-1.7-1.2-2.9-2.3-3.2-2.1-.6-4.6,2.6-5.5,7.2-.9,4.6,0,8.9,2.2,9.3,2.9.6,4.2-3.1,4.2-3.1h-1.2Z"/>
          <path class="cls-7" d="M51.5,122.9c-.9,1.6-1.9,2.4-2.8,2.2-1.6-.4-2.2-3.9-1.4-7.9.8-3.9,2.8-6.8,4.4-6.3.6.2,1.3,1.9,1.3,1.9h1.1c-.4-1.7-1.2-2.9-2.3-3.2-2.1-.6-4.6,2.6-5.5,7.2-.9,4.6,0,8.9,2.2,9.3,2.9.6,4.2-3.1,4.2-3.1h-1.2Z"/>
          <path class="cls-7" d="M64,124.4c-.9,1.6-1.9,2.4-2.8,2.2-1.6-.4-2.2-4-1.4-8,.8-4,2.8-6.8,4.4-6.4.6.2,1.3,2,1.3,2h1.1c-.4-1.7-1.2-2.9-2.3-3.2-2.1-.6-4.6,2.7-5.5,7.3-.9,4.6,0,9,2.2,9.4,2.9.6,4.2-3.2,4.2-3.2h-1.2Z"/>
          <path class="cls-7" d="M62.7,124.4c-.9,1.6-1.9,2.4-2.8,2.2-1.6-.4-2.2-4-1.4-8,.8-4,2.8-6.8,4.4-6.4.6.2,1.3,2,1.3,2h1.1c-.4-1.7-1.2-2.9-2.3-3.2-2.1-.6-4.6,2.7-5.5,7.3-.9,4.6,0,9,2.2,9.4,2.9.6,4.2-3.2,4.2-3.2h-1.2Z"/>
          <path class="cls-7" d="M75.2,126.1c-.9,1.6-1.9,2.5-2.8,2.2-1.6-.4-2.2-4-1.4-8.1.8-4,2.9-6.9,4.4-6.5.6.2,1.3,2,1.3,2h1.1c-.4-1.8-1.2-2.9-2.3-3.3-2.1-.6-4.6,2.7-5.5,7.4-.9,4.7,0,9.1,2.2,9.5,2.9.6,4.2-3.2,4.2-3.2h-1.2Z"/>
          <path class="cls-7" d="M73.9,126c-.9,1.6-1.9,2.5-2.8,2.2-1.6-.4-2.2-4-1.4-8.1.8-4,2.9-6.9,4.4-6.5.6.2,1.3,2,1.3,2h1.1c-.4-1.8-1.2-2.9-2.3-3.3-2.1-.6-4.6,2.7-5.5,7.4s0,9.1,2.2,9.5c2.9.6,4.2-3.2,4.2-3.2h-1.2Z"/>
          <path class="cls-7" d="M86.4,127.9c-.9,1.7-1.9,2.6-2.8,2.3-1.6-.4-2.2-4.2-1.4-8.4.8-4.2,2.9-7.2,4.4-6.8.6.2,1.3,2,1.3,2h1.1c-.4-1.8-1.2-3.1-2.3-3.4-2.1-.6-4.6,2.8-5.5,7.7-.9,4.8,0,9.4,2.2,9.9,2.9.6,4.2-3.3,4.2-3.3h-1.2Z"/>
          <path class="cls-7" d="M85.1,127.8c-.9,1.7-1.9,2.6-2.8,2.3-1.6-.4-2.2-4.2-1.4-8.4.8-4.2,2.9-7.2,4.4-6.8.6.2,1.3,2,1.3,2h1.1c-.4-1.8-1.2-3.1-2.3-3.4-2.1-.6-4.6,2.8-5.5,7.7-.9,4.8,0,9.4,2.2,9.9,2.9.6,4.2-3.3,4.2-3.3h-1.2Z"/>
          <path class="cls-7" d="M97.7,129.5c-.9,1.7-1.9,2.6-2.8,2.3-1.6-.4-2.2-4.2-1.4-8.4.8-4.2,2.9-7.2,4.4-6.8.6.2,1.3,2,1.3,2h1.1c-.4-1.8-1.2-3.1-2.3-3.4-2.1-.6-4.6,2.8-5.5,7.7-.9,4.8,0,9.4,2.2,9.9,2.9.6,4.2-3.3,4.2-3.3h-1.2Z"/>
          <path class="cls-7" d="M96.4,129.5c-.9,1.7-1.9,2.6-2.8,2.3-1.6-.4-2.2-4.2-1.4-8.4.8-4.2,2.9-7.2,4.4-6.8.6.2,1.3,2,1.3,2h1.1c-.4-1.8-1.2-3.1-2.3-3.4-2.1-.6-4.6,2.8-5.5,7.7-.9,4.8,0,9.4,2.2,9.9,2.9.6,4.2-3.3,4.2-3.3h-1.2Z"/>
          <path class="cls-7" d="M108.9,131c-.9,1.7-1.9,2.6-2.8,2.3-1.6-.4-2.2-4.2-1.4-8.4.8-4.2,2.9-7.2,4.4-6.8.6.2,1.3,2,1.3,2h1.1c-.4-1.8-1.2-3.1-2.3-3.4-2.1-.6-4.6,2.8-5.5,7.7-.9,4.8,0,9.4,2.2,9.9,2.9.6,4.2-3.3,4.2-3.3h-1.2Z"/>
          <path class="cls-7" d="M107.6,130.9c-.9,1.7-1.9,2.6-2.8,2.3-1.6-.4-2.2-4.2-1.4-8.4.8-4.2,2.9-7.2,4.4-6.8.6.2,1.3,2,1.3,2h1.1c-.4-1.8-1.2-3.1-2.3-3.4-2.1-.6-4.6,2.8-5.5,7.7-.9,4.8,0,9.4,2.2,9.9,2.9.6,4.2-3.3,4.2-3.3h-1.2Z"/>
          <path class="cls-7" d="M120.4,132.6c-.9,1.7-1.9,2.7-2.8,2.4-1.6-.4-2.2-4.3-1.4-8.6.8-4.3,2.9-7.4,4.4-7,.6.2,1.3,2.1,1.3,2.1h1.1c-.4-1.9-1.2-3.1-2.3-3.5-2.1-.6-4.6,2.9-5.5,7.9s0,9.7,2.2,10.1c2.9.6,4.2-3.4,4.2-3.4h-1.2Z"/>
          <path class="cls-7" d="M119.1,132.5c-.9,1.7-1.9,2.7-2.8,2.4-1.6-.4-2.2-4.3-1.4-8.6.8-4.3,2.9-7.4,4.4-7,.6.2,1.3,2.1,1.3,2.1h1.1c-.4-1.9-1.2-3.1-2.3-3.5-2.1-.6-4.6,2.9-5.5,7.9s0,9.7,2.2,10.1c2.9.6,4.2-3.4,4.2-3.4h-1.2Z"/>
          <path class="cls-7" d="M131.4,134c-.9,1.7-1.9,2.7-2.8,2.4-1.6-.4-2.2-4.3-1.4-8.6.8-4.3,2.9-7.4,4.4-7,.6.2,1.3,2.1,1.3,2.1h1.1c-.4-1.9-1.2-3.1-2.3-3.5-2.1-.6-4.6,2.9-5.5,7.9-.9,5,0,9.7,2.2,10.1,2.9.6,4.2-3.4,4.2-3.4h-1.2Z"/>
          <path class="cls-7" d="M130,133.9c-.9,1.7-1.9,2.7-2.8,2.4-1.6-.4-2.2-4.3-1.4-8.6.8-4.3,2.9-7.4,4.4-7,.6.2,1.3,2.1,1.3,2.1h1.1c-.4-1.9-1.2-3.1-2.3-3.5-2.1-.6-4.6,2.9-5.5,7.9-.9,5,0,9.7,2.2,10.1,2.9.6,4.2-3.4,4.2-3.4h-1.2Z"/>
          <path class="cls-7" d="M142.6,135.5c-.9,1.7-1.9,2.7-2.8,2.4-1.6-.4-2.2-4.3-1.4-8.6.8-4.3,2.9-7.4,4.4-7,.6.2,1.3,2.1,1.3,2.1h1.1c-.4-1.9-1.2-3.1-2.3-3.5-2.1-.6-4.6,2.9-5.5,7.9-.9,5,0,9.7,2.2,10.1,2.9.6,4.2-3.4,4.2-3.4h-1.2Z"/>
          <path class="cls-7" d="M141.2,135.4c-.9,1.7-1.9,2.7-2.8,2.4-1.6-.4-2.2-4.3-1.4-8.6.8-4.3,2.9-7.4,4.4-7,.6.2,1.3,2.1,1.3,2.1h1.1c-.4-1.9-1.2-3.1-2.3-3.5-2.1-.6-4.6,2.9-5.5,7.9-.9,5,0,9.7,2.2,10.1,2.9.6,4.2-3.4,4.2-3.4h-1.2Z"/>
          <path class="cls-7" d="M153.8,137.5c-.9,1.8-1.9,2.8-2.8,2.5-1.6-.5-2.2-4.5-1.4-8.9.8-4.5,2.9-7.7,4.4-7.2.6.2,1.2,2.2,1.2,2.2h1.1c-.4-2-1.2-3.3-2.3-3.6-2.1-.6-4.6,3-5.6,8.2-.9,5.2,0,10.1,2.2,10.5,2.9.6,4.2-3.6,4.2-3.6h-1.2Z"/>
          <path class="cls-7" d="M152.5,137.4c-.9,1.8-1.9,2.8-2.8,2.5-1.6-.5-2.2-4.5-1.4-8.9.8-4.5,2.9-7.7,4.4-7.2.6.2,1.2,2.2,1.2,2.2h1.1c-.4-2-1.2-3.3-2.3-3.6-2.1-.6-4.6,3-5.6,8.2-.9,5.2,0,10.1,2.2,10.5,2.9.6,4.2-3.6,4.2-3.6h-1.2Z"/>
          <path class="cls-7" d="M165,138.6c-.9,1.7-1.9,2.7-2.8,2.4-1.6-.5-2.2-4.3-1.4-8.7.8-4.3,2.9-7.5,4.4-7,.6.2,1.3,2.1,1.3,2.1h1.1c-.4-1.9-1.2-3.2-2.3-3.5-2.1-.6-4.6,2.9-5.5,8-.9,5,0,9.8,2.2,10.2,2.9.6,4.2-3.5,4.2-3.5h-1.2Z"/>
          <path class="cls-7" d="M163.7,138.5c-.9,1.7-1.9,2.7-2.8,2.4-1.6-.5-2.2-4.3-1.4-8.7.8-4.3,2.9-7.5,4.4-7,.6.2,1.3,2.1,1.3,2.1h1.1c-.4-1.9-1.2-3.2-2.3-3.5-2.1-.6-4.6,2.9-5.5,8-.9,5,0,9.8,2.2,10.2,2.9.6,4.2-3.5,4.2-3.5h-1.2Z"/>
          <path class="cls-7" d="M176.3,140.5c-.9,1.8-1.9,2.7-2.8,2.5-1.6-.5-2.2-4.4-1.4-8.8.8-4.4,2.9-7.6,4.4-7.2.6.2,1.2,2.2,1.2,2.2h1.1c-.4-1.9-1.2-3.2-2.3-3.6-2.1-.6-4.6,3-5.5,8.1-.9,5.1,0,10,2.2,10.4,2.9.6,4.2-3.5,4.2-3.5h-1.2Z"/>
          <path class="cls-7" d="M175,140.5c-.9,1.8-1.9,2.7-2.8,2.5-1.6-.5-2.2-4.4-1.4-8.8.8-4.4,2.9-7.6,4.4-7.2.6.2,1.2,2.2,1.2,2.2h1.1c-.4-1.9-1.2-3.2-2.3-3.6-2.1-.6-4.6,3-5.5,8.1-.9,5.1,0,10,2.2,10.4,2.9.6,4.2-3.5,4.2-3.5h-1.2Z"/>
          <path class="cls-7" d="M198.6,143.6c-.9,1.8-1.9,2.8-2.8,2.6-1.6-.5-2.2-4.6-1.4-9.1.8-4.6,2.9-7.9,4.5-7.4.6.2,1.2,2.2,1.2,2.2h1.1c-.4-2-1.2-3.3-2.3-3.7-2.1-.6-4.6,3.1-5.6,8.4-.9,5.3,0,10.3,2.2,10.8,2.9.6,4.2-3.7,4.2-3.7h-1.2Z"/>
          <path class="cls-7" d="M197.3,143.5c-.9,1.8-1.9,2.8-2.8,2.6-1.6-.5-2.2-4.6-1.4-9.1.8-4.6,2.9-7.9,4.5-7.4.6.2,1.2,2.2,1.2,2.2h1.1c-.4-2-1.2-3.3-2.3-3.7-2.1-.6-4.6,3.1-5.6,8.4-.9,5.3,0,10.3,2.2,10.8,2.9.6,4.2-3.7,4.2-3.7h-1.2Z"/>
        </g>
        <line class="cls-5" x1="321.8" y1="119" x2="321.7" y2="127.7"/>
        <path class="cls-2" d="M321.7,127.9h0M321.8,118.6h0"/>
        <line class="cls-1" x1="321.7" y1="127.9" x2="201.4" y2="144.2"/>
        <line class="cls-1" x1="321.7" y1="126.5" x2="201.4" y2="142.8"/>
        <line class="cls-1" x1="321.7" y1="125.2" x2="201.4" y2="141.5"/>
        <line class="cls-1" x1="321.7" y1="123.8" x2="201.4" y2="140.2"/>
        <line class="cls-1" x1="321.7" y1="122.5" x2="201.4" y2="138.8"/>
        <line class="cls-1" x1="321.7" y1="121.2" x2="201.4" y2="137.5"/>
        <line class="cls-1" x1="321.7" y1="119.8" x2="201.4" y2="136.1"/>
        <polyline class="cls-8" points="310.6 117.1 321.7 118.5 201.4 134.8"/>
        <polyline class="cls-1" points="310.6 117.1 321.7 118.5 201.4 134.8"/>
      </g>
    </g>
  </g>
</svg>