<?xml version="1.0" encoding="UTF-8"?>
<svg xmlns="http://www.w3.org/2000/svg" version="1.1" viewBox="0 0 269.3 212.6">
  <defs>
    <style>
      .cls-1 {
        fill: #9b9b9b;
        stroke-linecap: round;
      }

      .cls-1, .cls-2 {
        stroke: #9b9b9b;
      }

      .cls-1, .cls-2, .cls-3 {
        stroke-miterlimit: 10;
        stroke-width: .2px;
      }

      .cls-4 {
        fill: #20201e;
      }

      .cls-2 {
        fill: #fff;
      }

      .cls-3 {
        fill: #d9d9d9;
        stroke: #d9d9d9;
      }
    </style>
  </defs>
  <!-- Generator: Adobe Illustrator 28.6.0, SVG Export Plug-In . SVG Version: 1.2.0 Build 709)  -->
  <g>
    <g id="Ebene_1">
      <g>
        <g>
          <polygon class="cls-2" points="165.7 162.5 7 106.5 7 90.5 165.7 146.5 264.9 105.6 264.9 120.3 165.7 162.5"/>
          <path class="cls-2" d="M265,105.6h0l-99.3,42.2L7.2,91.9h0l158.5,55.9,99.3-42.2Z"/>
          <path class="cls-2" d="M265,106.7h0l-99.3,42.2L7.2,93.1h0l158.5,55.9,99.3-42.2Z"/>
          <path class="cls-2" d="M265,107.8h0l-99.3,42.2L7.2,94.2h0l158.5,55.9,99.3-42.2Z"/>
          <path class="cls-2" d="M265,109h0l-99.3,42.2L7.2,95.3h0l158.5,55.9,99.3-42.2Z"/>
          <path class="cls-2" d="M265,110.1h0l-99.3,42.2L7.2,96.5h0l158.5,55.9,99.3-42.2Z"/>
          <path class="cls-2" d="M265,111.2h0l-99.3,42.2L7.2,97.6h0l158.5,55.9,99.3-42.2Z"/>
          <path class="cls-2" d="M265,112.4h0l-99.3,42.2L7.2,98.7h0l158.5,55.9,99.3-42.2Z"/>
          <path class="cls-2" d="M265,113.5h0l-99.3,42.2L7.2,99.9h0l158.5,55.9,99.3-42.2Z"/>
          <path class="cls-2" d="M265,114.6h0l-99.3,42.2L7.2,101h0l158.5,55.9,99.3-42.2Z"/>
          <path class="cls-2" d="M265,115.8h0l-99.3,42.2L7.2,102.1h0l158.5,55.9,99.3-42.2Z"/>
          <path class="cls-2" d="M265,116.9h0l-99.3,42.2L7.2,103.3h0l158.5,55.9,99.3-42.2Z"/>
          <path class="cls-2" d="M265,118h0l-99.3,42.2L7.2,104.4h0l158.5,55.9,99.3-42.2Z"/>
          <path class="cls-2" d="M265,119.2h0l-99.3,42.2L7.2,105.5h0l158.5,55.9,99.3-42.2Z"/>
          <path class="cls-2" d="M265,120.3h0l-99.3,42.2L7.2,106.7h0l158.5,55.9,99.3-42.2Z"/>
          <polygon class="cls-2" points="265 105.6 165.7 146.8 257 103.6 265 105.6"/>
          <polygon class="cls-2" points="265 103.1 165.7 144.3 257 101.2 265 103.1"/>
          <path class="cls-2" d="M264.7,105.6h0l-99.1,42.2L6.9,91.9h0l158.8,55.9,99.1-42.2Z"/>
          <path class="cls-1" d="M165.7,147"/>
          <polygon class="cls-2" points="165.7 146.6 7.2 90.6 109.4 50.1 262.9 101.4 165.7 146.6"/>
        </g>
        <g>
          <g>
            <g>
              <polygon class="cls-3" points="18.2 92.6 24.2 94.8 26.5 93.4 20.6 91.5 18.2 92.6"/>
              <polygon class="cls-4" points="19.5 92.8 23.6 94.2 25.2 93.3 21.2 92 19.5 92.8"/>
            </g>
            <path class="cls-4" d="M24.3,93.9c0-2.9-1.1-5-3-5.9-.6-.3-1.2-.5-1.9-.5-.1,0-.3-.2-.4-.2-3.6-1.8-9.6,1.5-12.9,8-3.3,6.5-2.8,13.8.9,15.3.8.3,1.5.5,2.1.6,0,0,.2,0,.2.1,5,2.1,7.4-1.5,7.4-1.5l-1.9-.6c-.5.4-.9.8-1.3,1,.7-.5,1.1-1,1.1-1l-2.1-.6c-1,.9-1.8,1.3-2.5,1.4-2.5-1.4-2.3-6.9.5-12.4,2.3-4.4,5.8-7.5,8.4-7.8.8,1,1.1,3,1.1,3l2,.6c0-.7,0-1.4-.2-2,.4,1,.6,2.1.6,2.1l2,.6ZM8.8,96.4c-2.3,4.4-2.9,9.1-1.9,12.1-1.8-2.1-1.6-7.3.9-12.2,1.7-3.3,4.2-5.7,6.5-6.8-2,1.5-4,3.9-5.5,6.8Z"/>
          </g>
          <g>
            <g>
              <polygon class="cls-3" points="33.8 98.5 39.8 100.6 42.1 99.2 36.2 97.4 33.8 98.5"/>
              <polygon class="cls-4" points="35.1 98.7 39.2 100.1 40.7 99.2 36.7 97.9 35.1 98.7"/>
            </g>
            <path class="cls-4" d="M39.9,99.7c0-2.9-1.1-5-3-5.9-.6-.3-1.2-.5-1.9-.5-.1,0-.3-.2-.4-.2-3.6-1.8-9.6,1.5-12.9,8-3.3,6.5-2.8,13.8.9,15.3.8.3,1.5.5,2.1.6,0,0,.2,0,.2.1,5,2.1,7.4-1.5,7.4-1.5l-1.9-.6c-.5.4-.9.8-1.3,1,.7-.5,1.1-1,1.1-1l-2.1-.6c-1,.9-1.8,1.3-2.5,1.4-2.5-1.4-2.3-6.9.5-12.4,2.3-4.4,5.8-7.5,8.4-7.8.8,1,1.1,3,1.1,3l2,.6c0-.7,0-1.4-.2-2,.4,1,.6,2.1.6,2.1l2,.6ZM24.4,102.2c-2.3,4.4-2.9,9.1-1.9,12.1-1.8-2.1-1.6-7.3.9-12.2,1.7-3.3,4.2-5.7,6.5-6.8-2,1.5-4,3.9-5.5,6.8Z"/>
          </g>
          <g>
            <g>
              <polygon class="cls-3" points="49.4 103.9 55.4 106.1 57.7 104.7 51.8 102.8 49.4 103.9"/>
              <polygon class="cls-4" points="50.7 104.1 54.8 105.5 56.3 104.6 52.3 103.3 50.7 104.1"/>
            </g>
            <path class="cls-4" d="M55.5,105.2c0-2.9-1.1-5-3-5.9-.6-.3-1.2-.5-1.9-.5-.1,0-.3-.2-.4-.2-3.6-1.8-9.6,1.5-12.9,8-3.3,6.5-2.8,13.8.9,15.3.8.3,1.5.5,2.1.6,0,0,.2,0,.2.1,5,2.1,7.4-1.5,7.4-1.5l-1.9-.6c-.5.4-.9.8-1.3,1,.7-.5,1.1-1,1.1-1l-2.1-.6c-1,.9-1.8,1.3-2.5,1.4-2.5-1.4-2.3-6.9.5-12.4,2.3-4.4,5.8-7.5,8.4-7.8.8,1,1.1,3,1.1,3l2,.6c0-.7,0-1.4-.2-2,.4,1,.6,2.1.6,2.1l2,.6ZM39.9,107.7c-2.3,4.4-2.9,9.1-1.9,12.1-1.8-2.1-1.6-7.3.9-12.2,1.7-3.3,4.2-5.7,6.5-6.8-2,1.5-4,3.9-5.5,6.8Z"/>
          </g>
          <g>
            <g>
              <polygon class="cls-3" points="64.9 109.8 71 111.9 73.3 110.6 67.4 108.7 64.9 109.8"/>
              <polygon class="cls-4" points="66.3 110 70.4 111.4 71.9 110.5 67.9 109.2 66.3 110"/>
            </g>
            <path class="cls-4" d="M71,111c0-2.9-1.1-5-3-5.9-.6-.3-1.2-.5-1.9-.5-.1,0-.3-.2-.4-.2-3.6-1.8-9.6,1.5-12.9,8-3.3,6.5-2.8,13.8.9,15.3.8.3,1.5.5,2.1.6,0,0,.2,0,.2.1,5,2.1,7.4-1.5,7.4-1.5l-1.9-.6c-.5.4-.9.8-1.3,1,.7-.5,1.1-1,1.1-1l-2.1-.6c-1,.9-1.8,1.3-2.5,1.4-2.5-1.4-2.3-6.9.5-12.4,2.3-4.4,5.8-7.5,8.4-7.8.8,1,1.1,3,1.1,3l2,.6c0-.7,0-1.4-.2-2,.4,1,.6,2.1.6,2.1l2,.6ZM55.5,113.5c-2.3,4.4-2.9,9.1-1.9,12.1-1.8-2.1-1.6-7.3.9-12.2,1.7-3.3,4.2-5.7,6.5-6.8-2,1.5-4,3.9-5.5,6.8Z"/>
          </g>
          <g>
            <g>
              <polygon class="cls-3" points="80.5 114.7 86.6 116.9 88.8 115.5 82.9 113.6 80.5 114.7"/>
              <polygon class="cls-4" points="81.9 114.9 86 116.3 87.5 115.4 83.5 114.1 81.9 114.9"/>
            </g>
            <path class="cls-4" d="M86.6,116c0-2.9-1.1-5-3-5.9-.6-.3-1.2-.5-1.9-.5-.1,0-.3-.2-.4-.2-3.6-1.8-9.6,1.5-12.9,8-3.3,6.5-2.8,13.8.9,15.3.8.3,1.5.5,2.1.6,0,0,.2,0,.2.1,5,2.1,7.4-1.5,7.4-1.5l-1.9-.6c-.5.4-.9.8-1.3,1,.7-.5,1.1-1,1.1-1l-2.1-.6c-1,.9-1.8,1.3-2.5,1.4-2.5-1.4-2.3-6.9.5-12.4,2.3-4.4,5.8-7.5,8.4-7.8.8,1,1.1,3,1.1,3l2,.6c0-.7,0-1.4-.2-2,.4,1,.6,2.1.6,2.1l2,.6ZM71.1,118.4c-2.3,4.4-2.9,9.1-1.9,12.1-1.8-2.1-1.6-7.3.9-12.2,1.7-3.3,4.2-5.7,6.5-6.8-2,1.5-4,3.9-5.5,6.8Z"/>
          </g>
          <g>
            <g>
              <polygon class="cls-3" points="96.1 120.6 102.2 122.7 104.4 121.3 98.5 119.5 96.1 120.6"/>
              <polygon class="cls-4" points="97.4 120.8 101.5 122.2 103.1 121.3 99.1 120 97.4 120.8"/>
            </g>
            <path class="cls-4" d="M102.2,121.8c0-2.9-1.1-5-3-5.9-.6-.3-1.2-.5-1.9-.5-.1,0-.3-.2-.4-.2-3.6-1.8-9.6,1.5-12.9,8-3.3,6.5-2.8,13.8.9,15.3.8.3,1.5.5,2.1.6,0,0,.2,0,.2.1,5,2.1,7.4-1.5,7.4-1.5l-1.9-.6c-.5.4-.9.8-1.3,1,.7-.5,1.1-1,1.1-1l-2.1-.6c-1,.9-1.8,1.3-2.5,1.4-2.5-1.4-2.3-6.9.5-12.4,2.3-4.4,5.8-7.5,8.4-7.8.8,1,1.1,3,1.1,3l2,.6c0-.7,0-1.4-.2-2,.4,1,.6,2.1.6,2.1l2,.6ZM86.7,124.3c-2.3,4.4-2.9,9.1-1.9,12.1-1.8-2.1-1.6-7.3.9-12.2,1.7-3.3,4.2-5.7,6.5-6.8-2,1.5-4,3.9-5.5,6.8Z"/>
          </g>
          <g>
            <g>
              <polygon class="cls-3" points="111.7 126 117.7 128.2 120 126.8 114.1 124.9 111.7 126"/>
              <polygon class="cls-4" points="113 126.2 117.1 127.6 118.7 126.7 114.7 125.4 113 126.2"/>
            </g>
            <path class="cls-4" d="M117.8,127.3c0-2.9-1.1-5-3-5.9-.6-.3-1.2-.5-1.9-.5-.1,0-.3-.2-.4-.2-3.6-1.8-9.6,1.5-12.9,8-3.3,6.5-2.8,13.8.9,15.3.8.3,1.5.5,2.1.6,0,0,.2,0,.2.1,5,2.1,7.4-1.5,7.4-1.5l-1.9-.6c-.5.4-.9.8-1.3,1,.7-.5,1.1-1,1.1-1l-2.1-.6c-1,.9-1.8,1.3-2.5,1.4-2.5-1.4-2.3-6.9.5-12.4,2.3-4.4,5.8-7.5,8.4-7.8.8,1,1.1,3,1.1,3l2,.6c0-.7,0-1.4-.2-2,.4,1,.6,2.1.6,2.1l2,.6ZM102.3,129.8c-2.3,4.4-2.9,9.1-1.9,12.1-1.8-2.1-1.6-7.3.9-12.2,1.7-3.3,4.2-5.7,6.5-6.8-2,1.5-4,3.9-5.5,6.8Z"/>
          </g>
          <g>
            <g>
              <polygon class="cls-3" points="127.3 131.9 133.3 134 135.6 132.6 129.7 130.8 127.3 131.9"/>
              <polygon class="cls-4" points="128.6 132.1 132.7 133.5 134.3 132.6 130.3 131.3 128.6 132.1"/>
            </g>
            <path class="cls-4" d="M133.4,133.1c0-2.9-1.1-5-3-5.9-.6-.3-1.2-.5-1.9-.5-.1,0-.3-.2-.4-.2-3.6-1.8-9.6,1.5-12.9,8-3.3,6.5-2.8,13.8.9,15.3.8.3,1.5.5,2.1.6,0,0,.2,0,.2.1,5,2.1,7.4-1.5,7.4-1.5l-1.9-.6c-.5.4-.9.8-1.3,1,.7-.5,1.1-1,1.1-1l-2.1-.6c-1,.9-1.8,1.3-2.5,1.4-2.5-1.4-2.3-6.9.5-12.4,2.3-4.4,5.8-7.5,8.4-7.8.8,1,1.1,3,1.1,3l2,.6c0-.7,0-1.4-.2-2,.4,1,.6,2.1.6,2.1l2,.6ZM117.9,135.6c-2.3,4.4-2.9,9.1-1.9,12.1-1.8-2.1-1.6-7.3.9-12.2,1.7-3.3,4.2-5.7,6.5-6.8-2,1.5-4,3.9-5.5,6.8Z"/>
          </g>
          <g>
            <g>
              <polygon class="cls-3" points="142.9 136.7 148.9 138.8 151.2 137.4 145.3 135.5 142.9 136.7"/>
              <polygon class="cls-4" points="144.2 136.8 148.3 138.3 149.8 137.3 145.8 136.1 144.2 136.8"/>
            </g>
            <path class="cls-4" d="M149,137.9c0-2.9-1.1-5-3-5.9-.6-.3-1.2-.5-1.9-.5-.1,0-.3-.2-.4-.2-3.6-1.8-9.6,1.5-12.9,8-3.3,6.5-2.8,13.8.9,15.3.8.3,1.5.5,2.1.6,0,0,.2,0,.2.1,5,2.1,7.4-1.5,7.4-1.5l-1.9-.6c-.5.4-.9.8-1.3,1,.7-.5,1.1-1,1.1-1l-2.1-.6c-1,.9-1.8,1.3-2.5,1.4-2.5-1.4-2.3-6.9.5-12.4,2.3-4.4,5.8-7.5,8.4-7.8.8,1,1.1,3,1.1,3l2,.6c0-.7,0-1.4-.2-2,.4,1,.6,2.1.6,2.1l2,.6ZM133.4,140.4c-2.3,4.4-2.9,9.1-1.9,12.1-1.8-2.1-1.6-7.3.9-12.2,1.7-3.3,4.2-5.7,6.5-6.8-2,1.5-4,3.9-5.5,6.8Z"/>
          </g>
          <g>
            <g>
              <polygon class="cls-3" points="158.4 142.6 164.5 144.7 166.8 143.3 160.9 141.4 158.4 142.6"/>
              <polygon class="cls-4" points="159.8 142.7 163.9 144.2 165.4 143.2 161.4 141.9 159.8 142.7"/>
            </g>
            <path class="cls-4" d="M164.6,143.8c0-2.9-1.1-5-3-5.9-.6-.3-1.2-.5-1.9-.5-.1,0-.3-.2-.4-.2-3.6-1.8-9.6,1.5-12.9,8-3.3,6.5-2.8,13.8.9,15.3.8.3,1.5.5,2.1.6,0,0,.2,0,.2.1,5,2.1,7.4-1.5,7.4-1.5l-1.9-.6c-.5.4-.9.8-1.3,1,.7-.5,1.1-1,1.1-1l-2.1-.6c-1,.9-1.8,1.3-2.5,1.4-2.5-1.4-2.3-6.9.5-12.4,2.3-4.4,5.8-7.5,8.4-7.8.8,1,1.1,3,1.1,3l2,.6c0-.7,0-1.4-.2-2,.4,1,.6,2.1.6,2.1l2,.6ZM149,146.3c-2.3,4.4-2.9,9.1-1.9,12.1-1.8-2.1-1.6-7.3.9-12.2,1.7-3.3,4.2-5.7,6.5-6.8-2,1.5-4,3.9-5.5,6.8Z"/>
          </g>
        </g>
      </g>
    </g>
  </g>
</svg>